<?xml version="1.0" encoding="UTF-8"?>
<svg version="1.1" xmlns="http://www.w3.org/2000/svg" width="97" height="110">
<path d="M0 0 C1.05832031 -0.02578125 2.11664063 -0.0515625 3.20703125 -0.078125 C6.49796772 0.28417993 7.86299784 0.93112618 10.1875 3.25 C10.1875 3.91 10.1875 4.57 10.1875 5.25 C15.62963584 6.61053396 20.99288757 7.39501518 26.0625 4.75 C27.114375 4.0075 27.114375 4.0075 28.1875 3.25 C28.8475 3.25 29.5075 3.25 30.1875 3.25 C30.5175 2.26 30.8475 1.27 31.1875 0.25 C42.69538031 -0.51833029 42.69538031 -0.51833029 46.28125 1.328125 C47.8125 2.6875 47.8125 2.6875 50.1875 5.25 C54.51097606 6.69115869 58.4168336 6.75590469 62.8125 5.5 C65.31271636 4.34110926 65.31271636 4.34110926 67.25 2.125 C71.86820727 -0.82279187 76.84251521 -0.2500676 82.1875 0.25 C84.01383572 2.07633572 83.35337933 4.960502 83.38037109 7.4152832 C83.39263733 8.38145317 83.39263733 8.38145317 83.40515137 9.36714172 C83.43007526 11.51167878 83.44655192 13.65614862 83.4609375 15.80078125 C83.46626118 16.53510061 83.47158485 17.26941998 83.47706985 18.02599144 C83.50385018 21.9236484 83.52319669 25.82127301 83.53759766 29.71899414 C83.55086015 32.92859897 83.57856004 36.13755636 83.61962891 39.34692383 C83.66934415 43.23205312 83.69376783 47.11660143 83.70082474 51.00203514 C83.70748239 52.47424845 83.72255889 53.94645166 83.74671555 55.41848183 C83.9196952 66.61133213 82.42036892 78.08350192 74.359375 86.6015625 C65.97258997 92.967072 55.38193396 96.78698403 45.56640625 100.33984375 C43.26753501 101.03404909 43.26753501 101.03404909 42.1875 102.25 C37.15016971 102.57727542 33.60458874 101.94525632 28.9921875 99.94921875 C27.86425781 99.46646484 26.73632812 98.98371094 25.57421875 98.48632812 C24.41535156 97.97521484 23.25648437 97.46410156 22.0625 96.9375 C20.31259766 96.18823242 20.31259766 96.18823242 18.52734375 95.42382812 C8.05665086 90.89612301 8.05665086 90.89612301 4.1875 88.25 C4.1875 87.59 4.1875 86.93 4.1875 86.25 C3.61 86.04375 3.0325 85.8375 2.4375 85.625 C-1.9920916 82.91802736 -4.24510696 78.0727478 -5.8125 73.25 C-6.6636265 68.95902154 -6.93888677 64.89694749 -6.94189453 60.52612305 C-6.94504669 59.2084343 -6.94819885 57.89074554 -6.95144653 56.53312683 C-6.94965742 55.10932379 -6.94760663 53.68552106 -6.9453125 52.26171875 C-6.94598657 50.79295333 -6.94695746 49.32418801 -6.94821167 47.85542297 C-6.94968145 44.78828868 -6.94755571 41.72118362 -6.94287109 38.65405273 C-6.93714898 34.71509596 -6.94047295 30.77620696 -6.94644356 26.83725262 C-6.95004717 23.80991601 -6.94891195 20.78259564 -6.94631577 17.75525856 C-6.94564724 16.30192876 -6.94647233 14.84859749 -6.94879532 13.39526939 C-6.95132123 11.3724813 -6.94679199 9.34968804 -6.94189453 7.3269043 C-6.94109894 6.17473923 -6.94030334 5.02257416 -6.93948364 3.835495 C-6.70609268 -0.91654366 -4.20478699 0.06101263 0 0 Z " fill="#C4C4C4" transform="translate(9.8125,4.75)"/>
<path d="M0 0 C1.05832031 -0.02578125 2.11664063 -0.0515625 3.20703125 -0.078125 C6.49796772 0.28417993 7.86299784 0.93112618 10.1875 3.25 C10.1875 3.91 10.1875 4.57 10.1875 5.25 C15.62963584 6.61053396 20.99288757 7.39501518 26.0625 4.75 C27.114375 4.0075 27.114375 4.0075 28.1875 3.25 C28.8475 3.25 29.5075 3.25 30.1875 3.25 C30.5175 2.26 30.8475 1.27 31.1875 0.25 C42.69538031 -0.51833029 42.69538031 -0.51833029 46.28125 1.328125 C47.8125 2.6875 47.8125 2.6875 50.1875 5.25 C54.51097606 6.69115869 58.4168336 6.75590469 62.8125 5.5 C65.31271636 4.34110926 65.31271636 4.34110926 67.25 2.125 C71.86820727 -0.82279187 76.84251521 -0.2500676 82.1875 0.25 C84.01383572 2.07633572 83.35337933 4.960502 83.38037109 7.4152832 C83.39263733 8.38145317 83.39263733 8.38145317 83.40515137 9.36714172 C83.43007526 11.51167878 83.44655192 13.65614862 83.4609375 15.80078125 C83.46626118 16.53510061 83.47158485 17.26941998 83.47706985 18.02599144 C83.50385018 21.9236484 83.52319669 25.82127301 83.53759766 29.71899414 C83.55086015 32.92859897 83.57856004 36.13755636 83.61962891 39.34692383 C83.66934415 43.23205312 83.69376783 47.11660143 83.70082474 51.00203514 C83.70748239 52.47424845 83.72255889 53.94645166 83.74671555 55.41848183 C83.9196952 66.61133213 82.42036892 78.08350192 74.359375 86.6015625 C65.97258997 92.967072 55.38193396 96.78698403 45.56640625 100.33984375 C43.26753501 101.03404909 43.26753501 101.03404909 42.1875 102.25 C37.15016971 102.57727542 33.60458874 101.94525632 28.9921875 99.94921875 C27.86425781 99.46646484 26.73632812 98.98371094 25.57421875 98.48632812 C24.41535156 97.97521484 23.25648437 97.46410156 22.0625 96.9375 C20.31259766 96.18823242 20.31259766 96.18823242 18.52734375 95.42382812 C8.05665086 90.89612301 8.05665086 90.89612301 4.1875 88.25 C4.1875 87.59 4.1875 86.93 4.1875 86.25 C3.61 86.04375 3.0325 85.8375 2.4375 85.625 C-1.9920916 82.91802736 -4.24510696 78.0727478 -5.8125 73.25 C-6.6636265 68.95902154 -6.93888677 64.89694749 -6.94189453 60.52612305 C-6.94504669 59.2084343 -6.94819885 57.89074554 -6.95144653 56.53312683 C-6.94965742 55.10932379 -6.94760663 53.68552106 -6.9453125 52.26171875 C-6.94598657 50.79295333 -6.94695746 49.32418801 -6.94821167 47.85542297 C-6.94968145 44.78828868 -6.94755571 41.72118362 -6.94287109 38.65405273 C-6.93714898 34.71509596 -6.94047295 30.77620696 -6.94644356 26.83725262 C-6.95004717 23.80991601 -6.94891195 20.78259564 -6.94631577 17.75525856 C-6.94564724 16.30192876 -6.94647233 14.84859749 -6.94879532 13.39526939 C-6.95132123 11.3724813 -6.94679199 9.34968804 -6.94189453 7.3269043 C-6.94109894 6.17473923 -6.94030334 5.02257416 -6.93948364 3.835495 C-6.70609268 -0.91654366 -4.20478699 0.06101263 0 0 Z M-3.8125 3.25 C-3.85902462 11.30872864 -3.89447078 19.3674003 -3.91612434 27.42623043 C-3.92652166 31.1690492 -3.94060595 34.91177547 -3.96337891 38.65454102 C-3.98525296 42.27258261 -3.99709903 45.89053572 -4.00225449 49.50863838 C-4.00592429 50.88280185 -4.01308985 52.25696097 -4.02396011 53.63108635 C-4.11127366 65.13544432 -3.85972896 75.31995267 4.1875 84.25 C10.05934128 89.21110672 17.58806053 91.79838063 24.625 94.6875 C25.51396973 95.05431885 26.40293945 95.4211377 27.31884766 95.79907227 C28.16108887 96.13221436 29.00333008 96.46535645 29.87109375 96.80859375 C30.62962646 97.11079834 31.38815918 97.41300293 32.16967773 97.72436523 C34.36783259 98.49275732 34.36783259 98.49275732 37.1875 97.25 C36.8575 96.92 36.5275 96.59 36.1875 96.25 C38.125 95.6875 38.125 95.6875 40.1875 95.25 C40.5175 95.58 40.8475 95.91 41.1875 96.25 C44.67529754 97.56991564 46.55748001 97.00438676 49.92578125 95.5546875 C50.82876953 95.16796875 51.73175781 94.78125 52.66210938 94.3828125 C53.59861328 93.96773438 54.53511719 93.55265625 55.5 93.125 C56.88735352 92.5371875 56.88735352 92.5371875 58.30273438 91.9375 C69.0047064 87.34886167 69.0047064 87.34886167 76 78.4375 C76.37769531 77.64730469 76.75539063 76.85710937 77.14453125 76.04296875 C80.31240955 67.55969915 80.45346002 59.90529677 80.3828125 50.90625 C80.37907576 49.52763068 80.37623191 48.14900868 80.37423706 46.77038574 C80.36665258 43.16679366 80.34704962 39.56336645 80.3248291 35.95983887 C80.30425802 32.27272775 80.29521142 28.58558963 80.28515625 24.8984375 C80.26379802 17.68221705 80.22972592 10.46613175 80.1875 3.25 C77.5475 3.25 74.9075 3.25 72.1875 3.25 C72.1875 8.53 72.1875 13.81 72.1875 19.25 C66.5775 19.25 60.9675 19.25 55.1875 19.25 C55.8475 20.24 56.5075 21.23 57.1875 22.25 C56.1975 21.92 55.2075 21.59 54.1875 21.25 C54.6825 23.23 54.6825 23.23 55.1875 25.25 C49.9075 25.25 44.6275 25.25 39.1875 25.25 C39.5175 23.6 39.8475 21.95 40.1875 20.25 C38.8675 20.25 37.5475 20.25 36.1875 20.25 C35.8575 21.57 35.5275 22.89 35.1875 24.25 C34.5275 23.92 33.8675 23.59 33.1875 23.25 C33.1875 22.26 33.1875 21.27 33.1875 20.25 C33.8475 19.92 34.5075 19.59 35.1875 19.25 C30.2375 19.25 25.2875 19.25 20.1875 19.25 C19.8575 20.24 19.5275 21.23 19.1875 22.25 C18.5275 22.58 17.8675 22.91 17.1875 23.25 C17.1875 22.26 17.1875 21.27 17.1875 20.25 C17.8475 19.92 18.5075 19.59 19.1875 19.25 C14.2375 19.25 9.2875 19.25 4.1875 19.25 C4.1875 19.91 4.1875 20.57 4.1875 21.25 C3.5275 21.25 2.8675 21.25 2.1875 21.25 C2.1875 21.91 2.1875 22.57 2.1875 23.25 C1.1975 22.59 0.2075 21.93 -0.8125 21.25 C0.5075 20.59 1.8275 19.93 3.1875 19.25 C3.1875 13.97 3.1875 8.69 3.1875 3.25 C2.8575 3.25 2.5275 3.25 2.1875 3.25 C1.8575 4.9 1.5275 6.55 1.1875 8.25 C0.5275 7.92 -0.1325 7.59 -0.8125 7.25 C-0.8125 5.25 -0.8125 5.25 1.1875 3.25 C-0.4625 3.25 -2.1125 3.25 -3.8125 3.25 Z " fill="#BDBDBD" transform="translate(9.8125,4.75)"/>
<path d="M0 0 C17.44325768 -0.54072096 17.44325768 -0.54072096 26 3 C26.99 3 27.98 3 29 3 C28.90912109 3.94746094 28.90912109 3.94746094 28.81640625 4.9140625 C28.09635714 12.60197142 27.52854446 20.29674563 27 28 C25.02 27.34 23.04 26.68 21 26 C21.85006086 28.26716429 21.85006086 28.26716429 24.5 28.9375 C25.325 29.288125 26.15 29.63875 27 30 C27.495 31.485 27.495 31.485 28 33 C26.68 33 25.36 33 24 33 C24 33.66 24 34.32 24 35 C25.65 35.33 27.3 35.66 29 36 C29 36.66 29 37.32 29 38 C28.01 38.33 27.02 38.66 26 39 C25.01 38.34 24.02 37.68 23 37 C24.98 38.65 26.96 40.3 29 42 C28.875 44.25 28.875 44.25 28 47 C23.02702703 51 23.02702703 51 19 51 C18.505 47.04 18.505 47.04 18 43 C18 45.97 18 48.94 18 52 C17.01 51.67 16.02 51.34 15 51 C14.95101562 50.18015625 14.90203125 49.3603125 14.8515625 48.515625 C14.77679688 47.43796875 14.70203125 46.3603125 14.625 45.25 C14.52058594 43.64898437 14.52058594 43.64898437 14.4140625 42.015625 C14.0271777 39.19793568 13.44313834 37.4169634 12 35 C11.87963336 40.77759884 12.1679418 46.27959989 13 52 C11.02 52.495 11.02 52.495 9 53 C8.67 54.32 8.34 55.64 8 57 C5.525 57.495 5.525 57.495 3 58 C1.46733418 54.93466836 1.89723529 51.73245728 1.9375 48.375 C1.94201172 47.66859375 1.94652344 46.9621875 1.95117188 46.234375 C1.96296125 44.48954725 1.98089676 42.744763 2 41 C3.32 41 4.64 41 6 41 C6.8723412 38.00519083 7.10829766 35.36424089 7.0625 32.25 C7.05347656 31.45078125 7.04445313 30.6515625 7.03515625 29.828125 C7.02355469 29.22484375 7.01195313 28.6215625 7 28 C6.34 28.99 5.68 29.98 5 31 C4.34 30.67 3.68 30.34 3 30 C2.9071875 30.8353125 2.9071875 30.8353125 2.8125 31.6875 C1.66587721 34.95096487 -0.51955157 36.64054906 -3 39 C-3.66 39.99 -4.32 40.98 -5 42 C0.53038493 37.50830072 0.53038493 37.50830072 5 32 C4.69080565 35.40113783 4.41046843 37.48691446 2.25 40.1875 C-1.66870782 43.34423686 -3.85546425 45 -9 45 C-9 44.34 -9 43.68 -9 43 C-9.66 43 -10.32 43 -11 43 C-11.495 45.475 -11.495 45.475 -12 48 C-15.465 48.495 -15.465 48.495 -19 49 C-19.05399736 47.54207116 -19.09279177 46.08357288 -19.125 44.625 C-19.15980469 43.40683594 -19.15980469 43.40683594 -19.1953125 42.1640625 C-19 40 -19 40 -17 38 C-16.82836269 35.43707683 -16.76735442 32.99654143 -16.8125 30.4375 C-16.81314453 29.73947266 -16.81378906 29.04144531 -16.81445312 28.32226562 C-16.5451862 24.87149957 -16.5451862 24.87149957 -18 22 C-17.5215123 19.71237307 -16.89748368 17.47961525 -16.27734375 15.2265625 C-15.71828539 12.71483787 -15.71828539 12.71483787 -18 10 C-17.54716981 3.54716981 -17.54716981 3.54716981 -15 1 C-12.90769231 5.43076923 -12.90769231 5.43076923 -13.375 8.3125 C-13.58125 8.869375 -13.7875 9.42625 -14 10 C-14.33 9.01 -14.66 8.02 -15 7 C-14.67 8.65 -14.34 10.3 -14 12 C-11.93470336 10.18712526 -11.93470336 10.18712526 -11.1875 8.0625 C-9.61204775 5.32618819 -7.78973032 4.39486516 -5 3 C-4.34 3 -3.68 3 -3 3 C-3 2.34 -3 1.68 -3 1 C-1.68 1.33 -0.36 1.66 1 2 C0.67 1.34 0.34 0.68 0 0 Z " fill="#757575" transform="translate(45,33)"/>
<path d="M0 0 C21.78 0 43.56 0 66 0 C66.061875 5.56875 66.12375 11.1375 66.1875 16.875 C66.22846802 19.47930908 66.22846802 19.47930908 66.27026367 22.13623047 C66.36337229 32.2228792 66.43691781 42.60473029 59.05859375 50.40625 C54.55053296 53.89636158 49.26067839 55.90710992 44 58 C43.154375 58.35449219 42.30875 58.70898438 41.4375 59.07421875 C32.58419887 62.47105825 25.61952728 59.87098895 17.12890625 56.45703125 C11.01018698 53.60774001 5.65514843 49.76388791 2 44 C0.10382109 38.58386369 -0.27109668 33.87454526 -0.1953125 28.22265625 C-0.19329834 27.50235229 -0.19128418 26.78204834 -0.18920898 26.03991699 C-0.17884171 23.38071207 -0.15092005 20.7215988 -0.125 18.0625 C-0.08375 12.101875 -0.0425 6.14125 0 0 Z M30 1 C30 1.66 30 2.32 30 3 C29.01 2.67 28.02 2.34 27 2 C27 2.66 27 3.32 27 4 C26.071875 4.268125 25.14375 4.53625 24.1875 4.8125 C21.20486385 5.92367817 19.88134543 6.52454549 18 9 C17.67 9.99 17.34 10.98 17 12 C16.67 12.33 16.34 12.66 16 13 C16 11 16 11 16.625 9.1875 C17.12173209 6.28989617 16.23395825 4.61308807 15 2 C13.01185424 4.23666399 12.05437141 5.55415446 11.6875 8.5625 C11.84922487 11.25525964 11.84922487 11.25525964 14 14 C13.625 17 13.625 17 13 20 C13 20.99 13 21.98 13 23 C13 23.33 13 23.66 13 24 C13.02320313 25.09183594 13.04640625 26.18367188 13.0703125 27.30859375 C13.08900129 28.68488967 13.10720839 30.06119219 13.125 31.4375 C13.14175781 32.13166016 13.15851562 32.82582031 13.17578125 33.54101562 C13.19340486 35.36153491 13.10316002 37.18232042 13 39 C12.34 39.66 11.68 40.32 11 41 C10.75746187 43.21072977 10.75746187 43.21072977 10.875 45.625 C10.89304687 46.44226563 10.91109375 47.25953125 10.9296875 48.1015625 C10.95289063 48.72804687 10.97609375 49.35453125 11 50 C14.465 49.505 14.465 49.505 18 49 C18.33 47.35 18.66 45.7 19 44 C19.66 44 20.32 44 21 44 C21 44.66 21 45.32 21 46 C25.53829228 45.46608326 28.4179638 43.80333268 32 41 C33.99083177 38.5748212 33.99083177 38.5748212 35 36 C34.67 35.01 34.34 34.02 34 33 C33.46375 33.9075 32.9275 34.815 32.375 35.75 C30.09936542 39.20438056 27.53604841 40.91051685 24 43 C24.48210938 42.60167969 24.96421875 42.20335937 25.4609375 41.79296875 C26.09257813 41.26316406 26.72421875 40.73335937 27.375 40.1875 C28.31472656 39.40439453 28.31472656 39.40439453 29.2734375 38.60546875 C31.2221048 36.91774261 31.2221048 36.91774261 33 34 C33 33.01 33 32.02 33 31 C33.99 31.33 34.98 31.66 36 32 C36.33 31.01 36.66 30.02 37 29 C37.0272415 30.41655793 37.04650467 31.83327045 37.0625 33.25 C37.07410156 34.03890625 37.08570312 34.8278125 37.09765625 35.640625 C37.00385306 37.90691002 36.63241063 39.8288895 36 42 C34.68 42 33.36 42 32 42 C31.97308315 44.45840605 31.95320198 46.91651882 31.9375 49.375 C31.92912109 50.07367188 31.92074219 50.77234375 31.91210938 51.4921875 C31.8164558 55.37295376 31.8164558 55.37295376 33 59 C34.98 58.34 36.96 57.68 39 57 C39 56.01 39 55.02 39 54 C40.98 53.505 40.98 53.505 43 53 C42.835 51.865625 42.67 50.73125 42.5 49.5625 C41.92423916 45.02939706 41.90494734 40.56252762 42 36 C44.03219488 39.40351338 44.36891039 42.3232927 44.625 46.25 C44.69976562 47.32765625 44.77453125 48.4053125 44.8515625 49.515625 C44.90054688 50.33546875 44.94953125 51.1553125 45 52 C45.99 52.33 46.98 52.66 48 53 C48 51.68 48 50.36 48 49 C48.33 49.99 48.66 50.98 49 52 C53.40114397 51.49701212 55.71195019 49.91227269 59 47 C58.42547254 43.06924356 58.42547254 43.06924356 56 40 C56.99 39.67 57.98 39.34 59 39 C59 38.34 59 37.68 59 37 C57.35 36.67 55.7 36.34 54 36 C54 35.34 54 34.68 54 34 C55.98 33.505 55.98 33.505 58 33 C55.94766315 30.7522025 54.99332739 29.9977758 52 29 C52 28.34 52 27.68 52 27 C54.475 27.99 54.475 27.99 57 29 C57.09087891 27.67548828 57.09087891 27.67548828 57.18359375 26.32421875 C57.70378061 18.8735423 58.28687258 11.43473264 59 4 C58.01 4 57.02 4 56 4 C54.205625 3.2575 54.205625 3.2575 52.375 2.5 C45.22628147 -0.03357246 37.47079112 0.76841405 30 1 Z " fill="#535353" transform="translate(15,32)"/>
<path d="M0 0 C0.33 0 0.66 0 1 0 C1.00808685 0.78181137 1.01617371 1.56362274 1.02450562 2.36912537 C1.10273108 9.76868392 1.19010393 17.16805316 1.28752708 24.56738186 C1.33728614 28.37064975 1.38361635 32.17389258 1.421875 35.97729492 C1.45898748 39.65381927 1.50541432 43.33012286 1.55806351 47.00645638 C1.57647059 48.40289465 1.59162797 49.79937999 1.60334396 51.19589043 C1.67135968 66.28522021 1.67135968 66.28522021 7.7265625 79.80078125 C16.03826317 87.84113774 29.22567137 91.4983432 40 95 C40 94.01 40 93.02 40 92 C40.598125 92.20625 41.19625 92.4125 41.8125 92.625 C44.28450846 93.30671915 44.28450846 93.30671915 47 91 C47 91.99 47 92.98 47 94 C56.21082224 92.61928503 70.33468767 87.63077704 77 81 C83.77373175 70.89204796 84.310304 60.46717003 84.4140625 48.65625 C84.43280282 47.27761717 84.4523783 45.89899546 84.4727478 44.52038574 C84.52377306 40.91693726 84.56355575 37.31345171 84.60089111 33.70983887 C84.64111798 30.02261408 84.69212443 26.33553953 84.7421875 22.6484375 C84.83859549 15.43239525 84.92311087 8.21627945 85 1 C82.36 1 79.72 1 77 1 C77 6.28 77 11.56 77 17 C72.05 17.33 67.1 17.66 62 18 C62 18.99 62 19.98 62 21 C61.34 20.67 60.68 20.34 60 20 C60 20.66 60 21.32 60 22 C60.99 22.66 61.98 23.32 63 24 C55.41 24 47.82 24 40 24 C41.32 23.67 42.64 23.34 44 23 C44 21.35 44 19.7 44 18 C43.01 18.33 42.02 18.66 41 19 C40.505 20.485 40.505 20.485 40 22 C39.01 21.67 38.02 21.34 37 21 C37.495 19.515 37.495 19.515 38 18 C33.71 17.67 29.42 17.34 25 17 C24.67 18.32 24.34 19.64 24 21 C23.34 21 22.68 21 22 21 C22 20.01 22 19.02 22 18 C17.71 17.67 13.42 17.34 9 17 C9.33 16.34 9.66 15.68 10 15 C10.98395752 14.96241577 10.98395752 14.96241577 11.98779297 14.92407227 C14.95040183 14.8082674 17.91268031 14.68547114 20.875 14.5625 C21.90753906 14.52318359 22.94007812 14.48386719 24.00390625 14.44335938 C24.99003906 14.40146484 25.97617187 14.35957031 26.9921875 14.31640625 C27.90339355 14.27974854 28.81459961 14.24309082 29.75341797 14.20532227 C32.03483481 14.13422935 32.03483481 14.13422935 34 13 C34.144375 11.906875 34.28875 10.81375 34.4375 9.6875 C34.99177938 6.05389072 35.57074951 4.64048966 38 2 C38.99 2.33 39.98 2.66 41 3 C40.67 3.99 40.34 4.98 40 6 C41.32 5.67 42.64 5.34 44 5 C43.34 5 42.68 5 42 5 C42 4.34 42 3.68 42 3 C44.3125 2.3125 44.3125 2.3125 47 2 C48.8125 3.4375 48.8125 3.4375 50 5 C49.34 7.31 48.68 9.62 48 12 C50.67848546 14.67848546 52.13970861 14.30504006 55.8828125 14.4140625 C57.04941406 14.45273437 58.21601562 14.49140625 59.41796875 14.53125 C61.25294922 14.57765625 61.25294922 14.57765625 63.125 14.625 C64.35605469 14.66367187 65.58710937 14.70234375 66.85546875 14.7421875 C69.90339211 14.83669675 72.95167589 14.91944623 76 15 C75.505 9.06 75.505 9.06 75 3 C74.01 3 73.02 3 72 3 C73.14453125 1.51171875 73.14453125 1.51171875 75 0 C77.69921875 -0.29296875 77.69921875 -0.29296875 80.6875 -0.1875 C81.68136719 -0.16042969 82.67523438 -0.13335938 83.69921875 -0.10546875 C84.45847656 -0.07066406 85.21773438 -0.03585938 86 0 C86.24753614 8.95360329 86.46659556 17.90733468 86.65021229 26.86247826 C86.736367 31.02159722 86.83199112 35.18003081 86.94995117 39.33837891 C87.06361995 43.35814186 87.15150612 47.37774703 87.22220421 51.39848709 C87.25345705 52.92553473 87.29369886 54.45242804 87.34345436 55.97898483 C87.63301316 65.07024659 87.22634675 72.26271852 82 80 C81.61383011 80.58848221 81.22766022 81.17696442 80.82978821 81.78327942 C77.75832045 85.93902014 74.0610661 87.94190329 69.5 90.0625 C68.80382568 90.39902588 68.10765137 90.73555176 67.39038086 91.08227539 C61.82980781 93.72549439 56.16851633 95.99421802 50.37890625 98.08984375 C48.08003501 98.78404909 48.08003501 98.78404909 47 100 C41.96266971 100.32727542 38.41708874 99.69525632 33.8046875 97.69921875 C32.67675781 97.21646484 31.54882812 96.73371094 30.38671875 96.23632812 C29.22785156 95.72521484 28.06898437 95.21410156 26.875 94.6875 C25.12509766 93.93823242 25.12509766 93.93823242 23.33984375 93.17382812 C12.86915086 88.64612301 12.86915086 88.64612301 9 86 C9 85.34 9 84.68 9 84 C8.4225 83.79375 7.845 83.5875 7.25 83.375 C2.81515923 80.66481953 0.56683899 75.82324061 -1 71 C-1.20254517 67.70329285 -1.20254517 67.70329285 -1.13525391 63.91479492 C-1.12579239 63.22156128 -1.11633087 62.52832764 -1.10658264 61.81408691 C-1.07306027 59.53593674 -1.02490405 57.25834855 -0.9765625 54.98046875 C-0.95037928 53.39579207 -0.92511357 51.81109999 -0.90072632 50.22639465 C-0.83423287 46.0653222 -0.75530642 41.9045756 -0.67376709 37.74377441 C-0.59269285 33.49402324 -0.52340882 29.24408153 -0.453125 24.99414062 C-0.31360571 16.66252913 -0.16094786 8.33122496 0 0 Z " fill="#C9C9C9" transform="translate(5,7)"/>
<path d="M0 0 C0.66 0.33 1.32 0.66 2 1 C2.59355614 3.64860427 2.74209269 6.29197322 3 9 C2.34 8.01 1.68 7.02 1 6 C1.33 7.65 1.66 9.3 2 11 C4.06529664 9.18712526 4.06529664 9.18712526 4.8125 7.0625 C6.38795225 4.32618819 8.21026968 3.39486516 11 2 C11.66 2 12.32 2 13 2 C13 1.34 13 0.68 13 0 C14.32 0.33 15.64 0.66 17 1 C17 0.67 17 0.34 17 0 C21.29 0 25.58 0 30 0 C30 0.66 30 1.32 30 2 C30.66 2 31.32 2 32 2 C31.67 3.98 31.34 5.96 31 8 C28.525 7.505 28.525 7.505 26 7 C26 6.01 26 5.02 26 4 C25.01 4.495 25.01 4.495 24 5 C24 5.99 24 6.98 24 8 C25.1446875 8.3403125 25.1446875 8.3403125 26.3125 8.6875 C30.15940482 10.56622096 31.15290114 13.30580228 33 17 C29 17 29 17 27.1484375 15.3203125 C26.56320313 14.59585938 25.97796875 13.87140625 25.375 13.125 C24.78460938 12.40570313 24.19421875 11.68640625 23.5859375 10.9453125 C23.06257813 10.30335937 22.53921875 9.66140625 22 9 C21.34 8.34 20.68 7.68 20 7 C19.01 7.495 19.01 7.495 18 8 C17.34 6.68 16.68 5.36 16 4 C16.60825035 8.34464536 17.26167392 12.67551867 18 17 C17.071875 17.4125 16.14375 17.825 15.1875 18.25 C12.11945319 19.93441786 10.80959535 21.08454083 9 24 C10.32 23.67 11.64 23.34 13 23 C12.01 25.64 11.02 28.28 10 31 C12.91171789 27.33019796 12.91171789 27.33019796 14 23 C14.99 22.67 15.98 22.34 17 22 C18.20882096 19.99983534 18.20882096 19.99983534 19 18 C21.5654594 20.5654594 21.54046087 22.47686668 22 26 C21.34 26 20.68 26 20 26 C19.9175 26.886875 19.835 27.77375 19.75 28.6875 C18.81957469 32.79687845 16.93787673 35.06212327 14 38 C16.33333333 35.66666667 18.66666667 33.33333333 21 31 C20.69080565 34.40113783 20.41046843 36.48691446 18.25 39.1875 C14.33129218 42.34423686 12.14453575 44 7 44 C7 43.34 7 42.68 7 42 C6.34 42 5.68 42 5 42 C4.505 44.475 4.505 44.475 4 47 C0.535 47.495 0.535 47.495 -3 48 C-3.05399736 46.54207116 -3.09279177 45.08357288 -3.125 43.625 C-3.15980469 42.40683594 -3.15980469 42.40683594 -3.1953125 41.1640625 C-3 39 -3 39 -1 37 C-0.82836269 34.43707683 -0.76735442 31.99654143 -0.8125 29.4375 C-0.81314453 28.73947266 -0.81378906 28.04144531 -0.81445312 27.32226562 C-0.5451862 23.87149957 -0.5451862 23.87149957 -2 21 C-1.5215123 18.71237307 -0.89748368 16.47961525 -0.27734375 14.2265625 C0.28171461 11.71483787 0.28171461 11.71483787 -2 9 C-1.46808511 2.93617021 -1.46808511 2.93617021 0 0 Z " fill="#EEEEEE" transform="translate(29,34)"/>
<path d="M0 0 C1.65 0 3.3 0 5 0 C4.34 1.32 3.68 2.64 3 4 C3.66 4.33 4.32 4.66 5 5 C5.33 3.35 5.66 1.7 6 0 C6.33 0 6.66 0 7 0 C7.10792837 2.60527105 7.18724878 5.20608311 7.25 7.8125 C7.28351562 8.55048828 7.31703125 9.28847656 7.3515625 10.04882812 C7.390625 12.20703125 7.390625 12.20703125 7 16 C4.984375 18.01171875 4.984375 18.01171875 3 19 C3.99 19.33 4.98 19.66 6 20 C6 19.34 6 18.68 6 18 C6.66 18 7.32 18 8 18 C8 17.34 8 16.68 8 16 C12.95 16 17.9 16 23 16 C22.34 16.33 21.68 16.66 21 17 C21 17.99 21 18.98 21 20 C21.99 19.67 22.98 19.34 24 19 C23.67 19.99 23.34 20.98 23 22 C18.05 22.33 13.1 22.66 8 23 C7.92518672 27.94381496 7.87108846 32.88729189 7.83520508 37.83154297 C7.82022766 39.50933583 7.79983846 41.18709028 7.77368164 42.86474609 C7.24696506 59.90889675 7.24696506 59.90889675 15.171875 74.4609375 C18.45098107 77.22155244 22.15378336 79.14526886 26 81 C26 81.33 26 81.66 26 82 C24.35 82 22.7 82 21 82 C21 82.66 21 83.32 21 84 C22.98 83.505 22.98 83.505 25 83 C24.67 83.99 24.34 84.98 24 86 C20.84905351 87.16087502 18.72266292 87.28532322 15.5859375 86.046875 C9.35043098 82.61828834 4.88592537 78.58107981 2 72 C-0.23543238 64.0951569 -0.2599315 56.50842303 -0.1953125 48.33984375 C-0.19157474 46.9402334 -0.18873138 45.54062039 -0.18673706 44.14100647 C-0.17916061 40.48646613 -0.15956486 36.83208892 -0.1373291 33.1776123 C-0.11674041 29.43679001 -0.10770771 25.69594094 -0.09765625 21.95507812 C-0.07631224 14.636645 -0.04225024 7.3183455 0 0 Z " fill="#151515" transform="translate(6,8)"/>
<path d="M0 0 C2.64 0 5.28 0 8 0 C8.0933431 7.85918214 8.16408687 15.71823049 8.20724869 23.57783031 C8.22798121 27.22876478 8.25602991 30.87931556 8.30175781 34.5300293 C8.3457361 38.06382745 8.36924437 41.59726038 8.37950897 45.13131142 C8.39032181 47.11241851 8.42146133 49.09338195 8.45318604 51.07426453 C8.4557196 61.4752822 7.0739794 72.85420554 0 81 C-2.625 82.9375 -2.625 82.9375 -5 84 C-5.66 83.67 -6.32 83.34 -7 83 C-6.01 80.03 -5.02 77.06 -4 74 C-2.35 74 -0.7 74 1 74 C1 73.01 1 72.02 1 71 C-0.32 71 -1.64 71 -3 71 C-2.86042877 70.46202286 -2.72085754 69.92404572 -2.57705688 69.36976624 C-1.18595841 63.64574375 -0.667889 58.24898834 -0.5859375 52.37109375 C-0.56657135 51.49598648 -0.5472052 50.62087921 -0.5272522 49.71925354 C-0.46807537 46.95876424 -0.42132181 44.19823182 -0.375 41.4375 C-0.33676308 39.55141537 -0.29770815 37.66534714 -0.2578125 35.77929688 C-0.16090509 31.18628939 -0.08084777 26.59342971 0 22 C-5.61 22 -11.22 22 -17 22 C-17.33 20.68 -17.66 19.36 -18 18 C-17.01 18 -16.02 18 -15 18 C-15.66 17.34 -16.32 16.68 -17 16 C-11.39 16 -5.78 16 0 16 C0 10.72 0 5.44 0 0 Z " fill="#3D3D3D" transform="translate(82,8)"/>
<path d="M0 0 C0.33 0 0.66 0 1 0 C1.02721176 1.89575251 1.04649136 3.79161979 1.0625 5.6875 C1.07410156 6.74324219 1.08570312 7.79898438 1.09765625 8.88671875 C1.00865425 11.72410262 0.64939838 14.2438919 0 17 C-1.65 16.67 -3.3 16.34 -5 16 C-4.505 24.415 -4.505 24.415 -4 33 C-3.34 33 -2.68 33 -2 33 C-1.67 32.34 -1.34 31.68 -1 31 C-0.34 31 0.32 31 1 31 C1.33 30.01 1.66 29.02 2 28 C2.99 27.67 3.98 27.34 5 27 C4.835 25.865625 4.67 24.73125 4.5 23.5625 C3.67922725 16.93769139 3.65403255 10.56159131 5 4 C5.33 4 5.66 4 6 4 C6.06058594 4.63808594 6.12117188 5.27617188 6.18359375 5.93359375 C6.30927734 7.17302734 6.30927734 7.17302734 6.4375 8.4375 C6.51871094 9.26121094 6.59992187 10.08492187 6.68359375 10.93359375 C6.78930815 12.98662025 6.78930815 12.98662025 8 14 C8.28400331 17.10149646 8.4487471 20.20292646 8.62109375 23.3125 C8.74613281 24.199375 8.87117188 25.08625 9 26 C9.66 26.33 10.32 26.66 11 27 C10.505 26.01 10.505 26.01 10 25 C9.95977609 22.6670134 9.95679753 20.33293334 10 18 C10.66 17.67 11.32 17.34 12 17 C12 19.97 12 22.94 12 26 C12.66 26.33 13.32 26.66 14 27 C14 27.66 14 28.32 14 29 C11.50749617 30.04358473 9.00877985 31.05943288 6.5 32.0625 C5.80390625 32.35705078 5.1078125 32.65160156 4.390625 32.95507812 C-2.13985428 35.52494266 -6.6440167 34.8542503 -13.4375 33.125 C-14.283125 32.75375 -15.12875 32.3825 -16 32 C-16.33 31.01 -16.66 30.02 -17 29 C-17.969375 28.690625 -18.93875 28.38125 -19.9375 28.0625 C-23 27 -23 27 -24.375 24.875 C-24.58125 24.25625 -24.7875 23.6375 -25 23 C-23.02 23 -21.04 23 -19 23 C-18.67 21.35 -18.34 19.7 -18 18 C-17.34 18 -16.68 18 -16 18 C-16 18.66 -16 19.32 -16 20 C-11.88663907 18.54822555 -8.49166855 16.61875142 -5 14 C-4.67 13.01 -4.34 12.02 -4 11 C-6.64 13.31 -9.28 15.62 -12 18 C-12.66 17.67 -13.32 17.34 -14 17 C-13.52949219 16.63648437 -13.05898438 16.27296875 -12.57421875 15.8984375 C-8.52807056 12.63136132 -5.99716574 9.93417419 -4 5 C-3.34 5 -2.68 5 -2 5 C-1.34 3.35 -0.68 1.7 0 0 Z " fill="#5D5D5D" transform="translate(52,58)"/>
<path d="M0 0 C1.11375 0.3403125 1.11375 0.3403125 2.25 0.6875 C2.25 1.6775 2.25 2.6675 2.25 3.6875 C0.6 3.6875 -1.05 3.6875 -2.75 3.6875 C-2.70875 4.40035156 -2.6675 5.11320312 -2.625 5.84765625 C-2.7758508 9.35022328 -3.14074285 11.54501359 -4.75 14.6875 C-8.91320801 17.77686977 -14.01031939 19.38991702 -18.87841797 21.04223633 C-20.48247348 21.59526512 -22.05622317 22.23486971 -23.62109375 22.890625 C-26.12690723 23.82858087 -27.2886091 23.65447499 -29.75 22.6875 C-30.08 22.3575 -30.41 22.0275 -30.75 21.6875 C-32.80396726 22.09679986 -32.80396726 22.09679986 -34.75 22.6875 C-34.42 23.3475 -34.09 24.0075 -33.75 24.6875 C-41.23252838 23.31570313 -47.80604954 20.76586721 -54.75 17.6875 C-53.75 15.6875 -53.75 15.6875 -50.75 13.6875 C-51.74 13.6875 -52.73 13.6875 -53.75 13.6875 C-53.75 13.0275 -53.75 12.3675 -53.75 11.6875 C-46.41186666 11.1230282 -40.58911885 13.13422896 -33.75 15.6875 C-33.75 17.3375 -33.75 18.9875 -33.75 20.6875 C-33.29625 20.1925 -32.8425 19.6975 -32.375 19.1875 C-30.75 17.6875 -30.75 17.6875 -28.75 17.6875 C-28.42 16.6975 -28.09 15.7075 -27.75 14.6875 C-24.48558499 13.11491651 -21.20215413 11.77952391 -17.828125 10.46875 C-13.15735576 8.56266402 -10.15446054 6.54588861 -6.75 2.6875 C-3.46351351 -0.39358108 -3.46351351 -0.39358108 0 0 Z " fill="#9A9A9A" transform="translate(80.75,78.3125)"/>
<path d="M0 0 C1.05832031 -0.02578125 2.11664063 -0.0515625 3.20703125 -0.078125 C6.49796772 0.28417993 7.86299784 0.93112618 10.1875 3.25 C10.1875 3.91 10.1875 4.57 10.1875 5.25 C12.4975 5.91 14.8075 6.57 17.1875 7.25 C16.1975 7.91 15.2075 8.57 14.1875 9.25 C16.4975 9.58 18.8075 9.91 21.1875 10.25 C21.1875 10.91 21.1875 11.57 21.1875 12.25 C20.1975 12.25 19.2075 12.25 18.1875 12.25 C19.1775 12.58 20.1675 12.91 21.1875 13.25 C21.1875 14.57 21.1875 15.89 21.1875 17.25 C15.9075 17.58 10.6275 17.91 5.1875 18.25 C4.8575 19.24 4.5275 20.23 4.1875 21.25 C3.5275 21.25 2.8675 21.25 2.1875 21.25 C2.1875 21.91 2.1875 22.57 2.1875 23.25 C0.8675 22.92 -0.4525 22.59 -1.8125 22.25 C-0.8125 20.25 -0.8125 20.25 2.1875 19.25 C2.1875 15.95 2.1875 12.65 2.1875 9.25 C0.8675 8.59 -0.4525 7.93 -1.8125 7.25 C-1.4825 6.26 -1.1525 5.27 -0.8125 4.25 C-1.8025 3.92 -2.7925 3.59 -3.8125 3.25 C-4.1425 25.03 -4.4725 46.81 -4.8125 69.25 C-6.8125 67.25 -6.8125 67.25 -7.05973816 64.51060486 C-7.05831314 63.34557938 -7.05688812 62.18055389 -7.05541992 60.98022461 C-7.05849655 59.66223373 -7.06157318 58.34424286 -7.06474304 56.98631287 C-7.05784581 55.54165473 -7.05057888 54.09699831 -7.04296875 52.65234375 C-7.04177708 51.17786194 -7.04132376 49.70337936 -7.0415802 48.22889709 C-7.040015 45.13781995 -7.03172186 42.04685857 -7.01831055 38.95581055 C-7.00130575 34.98534247 -6.9974966 31.01500153 -6.99825573 27.0445013 C-6.99798438 23.99999265 -6.99250909 20.95551201 -6.98525429 17.91101265 C-6.9820631 16.44652074 -6.98009917 14.98202564 -6.97936058 13.51753044 C-6.97720263 11.4751357 -6.96767366 9.4327527 -6.95776367 7.39038086 C-6.95395187 6.22615097 -6.95014008 5.06192108 -6.94621277 3.8624115 C-6.70182717 -0.91226893 -4.23575183 0.06146194 0 0 Z " fill="#AFAFAF" transform="translate(9.8125,4.75)"/>
<path d="M0 0 C0.99 0.33 1.98 0.66 3 1 C3 8.59 3 16.18 3 24 C3.66 24 4.32 24 5 24 C5.14695312 24.64066406 5.29390625 25.28132813 5.4453125 25.94140625 C7.35628174 33.31071866 9.88202097 38.34888278 16.390625 42.5390625 C18.56624023 43.76370126 20.7516359 44.91578887 23 46 C23 46.33 23 46.66 23 47 C21.35 47 19.7 47 18 47 C18 47.66 18 48.32 18 49 C19.98 48.505 19.98 48.505 22 48 C21.67 48.99 21.34 49.98 21 51 C17.84905351 52.16087502 15.72266292 52.28532322 12.5859375 51.046875 C6.25063803 47.56341729 2.11980809 43.55159698 -1 37 C-2.46520458 31.72526353 -1.8400892 26.73499586 -1.25390625 21.35546875 C-0.9642755 19.0634389 -0.9642755 19.0634389 -1 17 C-1 3 -1 3 0 0 Z " fill="#161616" transform="translate(9,43)"/>
<path d="M0 0 C0.66 0 1.32 0 2 0 C1.01 4.95 0.02 9.9 -1 15 C-0.34 14.01 0.32 13.02 1 12 C2.9375 10.75 2.9375 10.75 5 10 C5.99 10.33 6.98 10.66 8 11 C7.01 13.31 6.02 15.62 5 18 C7.91171789 14.33019796 7.91171789 14.33019796 9 10 C9.99 9.67 10.98 9.34 12 9 C13.20882096 6.99983534 13.20882096 6.99983534 14 5 C16.5654594 7.5654594 16.54046087 9.47686668 17 13 C16.34 13 15.68 13 15 13 C14.9175 13.886875 14.835 14.77375 14.75 15.6875 C13.81957469 19.79687845 11.93787673 22.06212327 9 25 C11.33333333 22.66666667 13.66666667 20.33333333 16 18 C15.69080565 21.40113783 15.41046843 23.48691446 13.25 26.1875 C9.33129218 29.34423686 7.14453575 31 2 31 C2 30.34 2 29.68 2 29 C1.34 29 0.68 29 0 29 C-0.495 31.475 -0.495 31.475 -1 34 C-4.465 34.495 -4.465 34.495 -8 35 C-8 32.69 -8 30.38 -8 28 C-7.67 28.66 -7.34 29.32 -7 30 C-6.01 29.67 -5.02 29.34 -4 29 C-4.33 28.01 -4.66 27.02 -5 26 C-4.68933594 25.38253906 -4.37867188 24.76507813 -4.05859375 24.12890625 C-2.7536968 21.504667 -2.8954295 19.84624021 -3.0625 16.9375 C-3.20083751 10.8994745 -1.85532941 5.70955537 0 0 Z " fill="#ABABAB" transform="translate(34,47)"/>
<path d="M0 0 C0.1953125 1.98567708 0.390625 3.97135417 0.5859375 5.95703125 C0.92665391 8.29988142 0.92665391 8.29988142 3 11 C2.625 14.0625 2.625 14.0625 2 17 C1.8509288 19.0745356 1.8509288 19.0745356 3 21 C2.34 21 1.68 21 1 21 C1.165 21.99 1.33 22.98 1.5 24 C2.07008441 28.05668759 2.2082796 31.90383459 2 36 C1.34 36.66 0.68 37.32 0 38 C0 39.155 0 40.31 0 41.5 C0 42.655 0 43.81 0 45 C-0.66 45.66 -1.32 46.32 -2 47 C-2.0825 46.2575 -2.165 45.515 -2.25 44.75 C-2.7536667 41.88644465 -2.7536667 41.88644465 -4.99609375 40.296875 C-7.69698475 37.2011169 -7.7112764 34.4359186 -7.8125 30.5 C-7.84400146 29.77111572 -7.87550293 29.04223145 -7.90795898 28.29125977 C-8.20817902 19.18202759 -7.61070621 10.08542935 -7 1 C-4.53721199 -0.231394 -2.7204945 -0.07159196 0 0 Z " fill="#5B5B5B" transform="translate(27,35)"/>
<path d="M0 0 C0.33 0 0.66 0 1 0 C1.10194982 7.22236996 1.17169539 14.4445523 1.21972656 21.66748047 C1.23976324 24.12132706 1.26700032 26.57512637 1.30175781 29.02880859 C1.35062498 32.56880403 1.3730492 36.10816468 1.390625 39.6484375 C1.41127014 40.73426117 1.43191528 41.82008484 1.45318604 42.93881226 C1.45563251 51.36291223 -0.04275905 58.36031883 -5.4375 65 C-7.91993196 66.93750787 -10.00812419 68.05969617 -13 69 C-12.01 65.7 -11.02 62.4 -10 59 C-8.35 59 -6.7 59 -5 59 C-5 58.01 -5 57.02 -5 56 C-6.32 56 -7.64 56 -9 56 C-8.68950274 54.56206608 -8.3765224 53.1246682 -8.0625 51.6875 C-7.88847656 50.88699219 -7.71445313 50.08648437 -7.53515625 49.26171875 C-7 47 -7 47 -6 44 C-5.85426942 42.52034074 -5.75336732 41.03596157 -5.68359375 39.55078125 C-5.64169922 38.70322266 -5.59980469 37.85566406 -5.55664062 36.98242188 C-5.49766602 35.66081055 -5.49766602 35.66081055 -5.4375 34.3125 C-5.37272461 32.97348633 -5.37272461 32.97348633 -5.30664062 31.60742188 C-5.20064647 29.40509892 -5.09857949 27.20266527 -5 25 C-4.67 25 -4.34 25 -4 25 C-4 30.28 -4 35.56 -4 41 C-3.01 41 -2.02 41 -1 41 C-1 40.01 -1 39.02 -1 38 C-1.66 37.67 -2.32 37.34 -3 37 C-2.01 37 -1.02 37 0 37 C-0.33 31.72 -0.66 26.44 -1 21 C-1.66 21 -2.32 21 -3 21 C-3.66 21.99 -4.32 22.98 -5 24 C-5.02697137 21.39576408 -5.04682489 18.79180756 -5.0625 16.1875 C-5.07087891 15.44951172 -5.07925781 14.71152344 -5.08789062 13.95117188 C-5.10259828 10.70077932 -5.03531702 8.10595105 -4 5 C-3.01 5 -2.02 5 -1 5 C-0.67 3.35 -0.34 1.7 0 0 Z " fill="#191919" transform="translate(88,23)"/>
<path d="M0 0 C0.66 0.33 1.32 0.66 2 1 C2.625 3.0625 2.625 3.0625 3 5 C3.66 4.67 4.32 4.34 5 4 C5.309375 4.928125 5.61875 5.85625 5.9375 6.8125 C8.51179197 10.79095123 10.39943267 11.17286101 14.84375 12.26171875 C17.25144056 13.08609106 18.35843987 14.09010792 20 16 C18.68 16.33 17.36 16.66 16 17 C16 17.66 16 18.32 16 19 C17.65 19.33 19.3 19.66 21 20 C21 20.66 21 21.32 21 22 C20.01 22.33 19.02 22.66 18 23 C17.01 22.34 16.02 21.68 15 21 C16.98 22.65 18.96 24.3 21 26 C20.875 28.25 20.875 28.25 20 31 C15.02702703 35 15.02702703 35 11 35 C10.67 32.36 10.34 29.72 10 27 C10 29.97 10 32.94 10 36 C9.01 35.67 8.02 35.34 7 35 C6.93941406 34.14535156 6.87882812 33.29070312 6.81640625 32.41015625 C6.73261719 31.30542969 6.64882813 30.20070313 6.5625 29.0625 C6.48128906 27.96035156 6.40007813 26.85820313 6.31640625 25.72265625 C6.29581916 23.08890097 6.29581916 23.08890097 5 22 C4.5427343 18.96665326 4.16351753 15.92791636 3.79296875 12.8828125 C2.8763686 9.55054201 1.93441121 8.70231563 -1 7 C-0.67 4.69 -0.34 2.38 0 0 Z " fill="#D2D2D2" transform="translate(53,49)"/>
<path d="M0 0 C4.95 0 9.9 0 15 0 C15.06933354 4.8019897 15.12892271 9.60220315 15.16479492 14.40429688 C15.17976766 16.03358891 15.20015321 17.66284145 15.22631836 19.29199219 C15.5780016 41.77213689 15.5780016 41.77213689 7.59765625 50.625 C5.79758231 52.17420789 4.22566949 53.16374062 2 54 C1.01 53.67 0.02 53.34 -1 53 C-0.4225 52.61328125 0.155 52.2265625 0.75 51.828125 C1.86375 51.04695313 1.86375 51.04695313 3 50.25 C3.7425 49.73953125 4.485 49.2290625 5.25 48.703125 C5.8275 48.14109375 6.405 47.5790625 7 47 C7.44160248 43.1691947 7.44160248 43.1691947 5.6875 41.515625 C4.8521875 40.88914062 4.8521875 40.88914062 4 40.25 C3.01 39.5075 2.02 38.765 1 38 C1.33 37.34 1.66 36.68 2 36 C2.61875 36.495 3.2375 36.99 3.875 37.5 C5.83880904 39.19222773 5.83880904 39.19222773 8 39 C7.505 37.515 7.505 37.515 7 36 C7.66 36 8.32 36 9 36 C9 25.11 9 14.22 9 3 C4.545 2.01 4.545 2.01 0 1 C0 0.67 0 0.34 0 0 Z " fill="#191919" transform="translate(66,32)"/>
<path d="M0 0 C9.03191863 -0.63135742 9.03191863 -0.63135742 12.875 1.875 C13.57625 2.57625 14.2775 3.2775 15 4 C19.26702868 6.53522206 23.14811535 6.67497577 28 6 C30.84345463 4.92946598 33.39594805 3.5549375 36 2 C36.66 1.67 37.32 1.34 38 1 C38 5.29 38 9.58 38 14 C27.77 14 17.54 14 7 14 C7.99 12.35 8.98 10.7 10 9 C10.88658466 6.40877257 10.88658466 6.40877257 11 4 C9.16116119 1.71271266 9.16116119 1.71271266 6.375 1.875 C5.59125 1.91625 4.8075 1.9575 4 2 C4 2.66 4 3.32 4 4 C4.99 3.67 5.98 3.34 7 3 C6.67 3.99 6.34 4.98 6 6 C4.68 5.67 3.36 5.34 2 5 C2 4.01 2 3.02 2 2 C1.34 1.34 0.68 0.68 0 0 Z " fill="#9E9E9E" transform="translate(43,8)"/>
<path d="M0 0 C1.25159912 0.00523682 2.50319824 0.01047363 3.79272461 0.01586914 C4.78942421 0.01799156 4.78942421 0.01799156 5.80625916 0.02015686 C7.93590735 0.02577021 10.06545175 0.03832485 12.19506836 0.05102539 C13.63582205 0.05603868 15.07657739 0.06060188 16.51733398 0.06469727 C20.05577938 0.07574394 23.59416375 0.09301747 27.13256836 0.11352539 C27.13256836 0.44352539 27.13256836 0.77352539 27.13256836 1.11352539 C17.56256836 1.44352539 7.99256836 1.77352539 -1.86743164 2.11352539 C-1.79306918 7.21889286 -1.70991921 12.32262307 -1.60498047 17.42724609 C-1.57192365 19.16022985 -1.54383311 20.89331629 -1.52099609 22.62646484 C-1.48709272 25.13170749 -1.43476436 27.63602519 -1.37915039 30.14086914 C-1.37276047 30.90374741 -1.36637054 31.66662567 -1.35978699 32.45262146 C-1.19011809 38.79640805 -0.03581613 45.12481231 3.75366211 50.34790039 C9.34712352 55.01513271 15.29546155 57.67951537 22.13256836 60.11352539 C23.17026367 60.48993164 24.20795898 60.86633789 25.27709961 61.25415039 C32.59366112 63.45612513 39.23940844 60.10288202 45.98413086 57.36743164 C49.00368504 56.16485485 52.04025269 55.11179547 55.13256836 54.11352539 C52.68779499 56.92747595 50.15246514 58.192502 46.75756836 59.67602539 C45.82170898 60.08981445 44.88584961 60.50360352 43.92163086 60.92993164 C42.08045639 61.71127039 40.22033401 62.44954449 38.34350586 63.14086914 C35.97147727 63.90352588 35.97147727 63.90352588 35.13256836 66.11352539 C34.47256836 66.11352539 33.81256836 66.11352539 33.13256836 66.11352539 C32.63756836 67.59852539 32.63756836 67.59852539 32.13256836 69.11352539 C31.47256836 69.11352539 30.81256836 69.11352539 30.13256836 69.11352539 C30.12225586 68.51282227 30.11194336 67.91211914 30.10131836 67.29321289 C29.25045528 64.72910632 29.25045528 64.72910632 25.85131836 63.62133789 C24.44896328 63.14868297 23.04239453 62.68840606 21.63256836 62.23852539 C12.57339075 59.09204394 4.56362375 55.4198454 -0.86743164 47.11352539 C-4.70326668 38.80327969 -4.26251124 29.9697157 -4.14868164 21.03320312 C-4.11710805 18.52532299 -4.10766033 16.01807035 -4.10180664 13.51000977 C-4.09265139 11.91820514 -4.08228038 10.32640693 -4.07055664 8.73461914 C-4.06630676 7.98369492 -4.06205688 7.23277069 -4.05767822 6.45909119 C-3.96972574 0.15716666 -3.96972574 0.15716666 0 0 Z " fill="#BDBDBD" transform="translate(16.867431640625,29.886474609375)"/>
<path d="M0 0 C0.33 0 0.66 0 1 0 C1.00808685 0.78181137 1.01617371 1.56362274 1.02450562 2.36912537 C1.10273108 9.76868392 1.19010393 17.16805316 1.28752708 24.56738186 C1.33728614 28.37064975 1.38361635 32.17389258 1.421875 35.97729492 C1.45898748 39.65381927 1.50541432 43.33012286 1.55806351 47.00645638 C1.57647059 48.40289465 1.59162797 49.79937999 1.60334396 51.19589043 C1.67124448 66.28818319 1.67124448 66.28818319 7.73046875 79.8046875 C16.26971258 88.06467895 30.06961734 91.85399279 41 96 C32.29474951 98.90175016 21.76583628 92.72646356 14 89 C11.08203125 87.43359375 11.08203125 87.43359375 9 86 C9 85.34 9 84.68 9 84 C8.4225 83.79375 7.845 83.5875 7.25 83.375 C2.81515923 80.66481953 0.56683899 75.82324061 -1 71 C-1.20254517 67.70329285 -1.20254517 67.70329285 -1.13525391 63.91479492 C-1.12579239 63.22156128 -1.11633087 62.52832764 -1.10658264 61.81408691 C-1.07306027 59.53593674 -1.02490405 57.25834855 -0.9765625 54.98046875 C-0.95037928 53.39579207 -0.92511357 51.81109999 -0.90072632 50.22639465 C-0.83423287 46.0653222 -0.75530642 41.9045756 -0.67376709 37.74377441 C-0.59269285 33.49402324 -0.52340882 29.24408153 -0.453125 24.99414062 C-0.31360571 16.66252913 -0.16094786 8.33122496 0 0 Z " fill="#CDCDCD" transform="translate(5,7)"/>
<path d="M0 0 C2.64 0 5.28 0 8 0 C8 20.46 8 40.92 8 62 C7.67 62 7.34 62 7 62 C6.67 46.82 6.34 31.64 6 16 C4.68 16.99 3.36 17.98 2 19 C1.34 19 0.68 19 0 19 C0 19.66 0 20.32 0 21 C-0.66 21 -1.32 21 -2 21 C-2 19.68 -2 18.36 -2 17 C-2.99 16.67 -3.98 16.34 -5 16 C-3.35 16 -1.7 16 0 16 C0 10.72 0 5.44 0 0 Z " fill="#303030" transform="translate(82,8)"/>
<path d="M0 0 C0.99 0.33 1.98 0.66 3 1 C2.98839844 1.99 2.97679687 2.98 2.96484375 4 C2.9102781 10.73800533 2.91101976 17.32999603 4 24 C2.68 24.33 1.36 24.66 0 25 C-0.33 26.32 -0.66 27.64 -1 29 C-2.65 29.33 -4.3 29.66 -6 30 C-7.53266582 26.93466836 -7.10276471 23.73245728 -7.0625 20.375 C-7.05798828 19.66859375 -7.05347656 18.9621875 -7.04882812 18.234375 C-7.03703875 16.48954725 -7.01910324 14.744763 -7 13 C-5.68 13 -4.36 13 -3 13 C-2.01 8.71 -1.02 4.42 0 0 Z " fill="#FBFBFB" transform="translate(54,61)"/>
<path d="M0 0 C5.28 0 10.56 0 16 0 C12.99895182 1.50052409 10.90648893 2.38848592 7.75 3.125 C6.5125 3.41375 5.275 3.7025 4 4 C3.09608151 11.03765112 2.89074012 18.03932285 2.875 25.125 C2.87048828 25.9593457 2.86597656 26.79369141 2.86132812 27.65332031 C2.87437571 33.1746214 3.30562184 38.52212788 4 44 C4.99 44.33 5.98 44.66 7 45 C9 48 9 48 10 50 C12.53388471 51.55931367 14.77156092 52.19615956 17.6875 52.9375 C19.3271875 53.4634375 19.3271875 53.4634375 21 54 C21.33 54.99 21.66 55.98 22 57 C14.8270319 56.63215548 8.79199166 52.26773934 4.0625 47.0625 C0.0517851 41.10719606 -0.28792587 35.1597594 -0.1953125 28.22265625 C-0.1924826 27.41130722 -0.18965271 26.59995819 -0.18673706 25.76402283 C-0.17562663 23.19669247 -0.15053971 20.62972322 -0.125 18.0625 C-0.11495836 16.31185403 -0.10583459 14.56120254 -0.09765625 12.81054688 C-0.07742683 8.54011673 -0.03826194 4.27045806 0 0 Z " fill="#121212" transform="translate(15,32)"/>
<path d="M0 0 C1 1 1 1 1.12025452 3.70179749 C1.1169236 5.51048561 1.1169236 5.51048561 1.11352539 7.35571289 C1.11367142 8.01910172 1.11381744 8.68249054 1.1139679 9.36598206 C1.11326881 11.56823956 1.10547665 13.77041345 1.09765625 15.97265625 C1.09579206 17.49580336 1.09436816 19.01895107 1.09336853 20.542099 C1.08954346 24.55837651 1.07971328 28.57461808 1.06866455 32.59088135 C1.05845019 36.68623366 1.05387086 40.78159176 1.04882812 44.87695312 C1.038091 52.91798528 1.02101472 60.95898817 1 69 C0.34 69 -0.32 69 -1 69 C-1 46.89 -1 24.78 -1 2 C-10.76696141 2.17145849 -10.76696141 2.17145849 -17 7 C-17.66 6.67 -18.32 6.34 -19 6 C-13.52241556 -0.48052244 -8.22975181 -1.02547381 0 0 Z " fill="#AAAAAA" transform="translate(92,5)"/>
<path d="M0 0 C7.33813334 -0.5644718 13.16088115 1.44672896 20 4 C20.125 6.375 20.125 6.375 20 9 C19.34 9.66 18.68 10.32 18 11 C18.66 11.66 19.32 12.32 20 13 C12.51747162 11.62820313 5.94395046 9.07836721 -1 6 C0 4 0 4 3 2 C2.01 2 1.02 2 0 2 C0 1.34 0 0.68 0 0 Z " fill="#A5A5A5" transform="translate(27,90)"/>
<path d="M0 0 C0 0.33 0 0.66 0 1 C-3.96 1 -7.92 1 -12 1 C-12 1.66 -12 2.32 -12 3 C-12.99 3.33 -13.98 3.66 -15 4 C-16.68538601 5.99665314 -16.68538601 5.99665314 -18 8 C-17.67 6.35 -17.34 4.7 -17 3 C-19.31 3.33 -21.62 3.66 -24 4 C-25.7222856 24.84728044 -25.7222856 24.84728044 -21 44 C-20.34 43.34 -19.68 42.68 -19 42 C-19 43.98 -19 45.96 -19 48 C-19.99 48 -20.98 48 -22 48 C-22.495 46.515 -22.495 46.515 -23 45 C-23.66 44.67 -24.32 44.34 -25 44 C-27.21389136 37.92194036 -27.28800813 31.51189093 -27.1875 25.125 C-27.17887939 24.25311035 -27.17025879 23.3812207 -27.16137695 22.48291016 C-26.95418345 7.53994776 -26.95418345 7.53994776 -26 4 C-18.43532818 -1.04311454 -8.75301208 -0.24695018 0 0 Z " fill="#3C3C3C" transform="translate(44,32)"/>
<path d="M0 0 C5.2605802 0.25661367 7.5636182 2.08093579 11.25390625 5.5 C13.60645521 7.52098165 16.17371487 8.75919189 19 10 C19 10.33 19 10.66 19 11 C17.35 11 15.7 11 14 11 C14 11.66 14 12.32 14 13 C15.32 12.67 16.64 12.34 18 12 C17.67 12.99 17.34 13.98 17 15 C13.10885099 16.01911045 11.39403493 16.16782969 7.625 14.5625 C6.75875 14.046875 5.8925 13.53125 5 13 C5 12.34 5 11.68 5 11 C4.01 10.34 3.02 9.68 2 9 C1.8125 6.375 1.8125 6.375 2 4 C1.34 3.67 0.68 3.34 0 3 C0 2.01 0 1.02 0 0 Z " fill="#4F4F4F" transform="translate(13,79)"/>
<path d="M0 0 C0.33 0 0.66 0 1 0 C1 16.5 1 33 1 50 C0.67 50 0.34 50 0 50 C-0.04898438 49.22914062 -0.09796875 48.45828125 -0.1484375 47.6640625 C-0.22320312 46.66117188 -0.29796875 45.65828125 -0.375 44.625 C-0.44460937 43.62726563 -0.51421875 42.62953125 -0.5859375 41.6015625 C-0.76363964 38.84491121 -0.76363964 38.84491121 -3 37 C-2.01 37 -1.02 37 0 37 C-0.33 31.72 -0.66 26.44 -1 21 C-1.66 21 -2.32 21 -3 21 C-3.66 21.99 -4.32 22.98 -5 24 C-5.02697137 21.39576408 -5.04682489 18.79180756 -5.0625 16.1875 C-5.07087891 15.44951172 -5.07925781 14.71152344 -5.08789062 13.95117188 C-5.10259828 10.70077932 -5.03531702 8.10595105 -4 5 C-3.01 5 -2.02 5 -1 5 C-0.67 3.35 -0.34 1.7 0 0 Z " fill="#0C0C0C" transform="translate(88,23)"/>
<path d="M0 0 C0.33 0 0.66 0 1 0 C1.06058594 0.63808594 1.12117188 1.27617188 1.18359375 1.93359375 C1.26738281 2.75988281 1.35117187 3.58617188 1.4375 4.4375 C1.51871094 5.26121094 1.59992187 6.08492188 1.68359375 6.93359375 C1.78930815 8.98662025 1.78930815 8.98662025 3 10 C3.28400331 13.10149646 3.4487471 16.20292646 3.62109375 19.3125 C3.74613281 20.199375 3.87117188 21.08625 4 22 C4.66 22.33 5.32 22.66 6 23 C5.67 22.34 5.34 21.68 5 21 C4.95977609 18.6670134 4.95679753 16.33293334 5 14 C5.66 13.67 6.32 13.34 7 13 C7 15.97 7 18.94 7 22 C7.66 22.33 8.32 22.66 9 23 C9 23.66 9 24.32 9 25 C6.44114774 26.01031065 3.87859624 27.00840145 1.3125 28 C0.2306543 28.42925781 0.2306543 28.42925781 -0.87304688 28.8671875 C-4.71040321 30.3390502 -7.81566589 31.39614998 -12 31 C-12.33 30.34 -12.66 29.68 -13 29 C-11.02 29 -9.04 29 -7 29 C-6.67 28.34 -6.34 27.68 -6 27 C-5.34 27 -4.68 27 -4 27 C-3.67 26.01 -3.34 25.02 -3 24 C-2.01 23.67 -1.02 23.34 0 23 C-0.2475 21.2984375 -0.2475 21.2984375 -0.5 19.5625 C-1.32077275 12.93769139 -1.34596745 6.56159131 0 0 Z " fill="#404040" transform="translate(57,62)"/>
<path d="M0 0 C1.65 0.33 3.3 0.66 5 1 C5 13.21 5 25.42 5 38 C4.67 38 4.34 38 4 38 C3.67 30.41 3.34 22.82 3 15 C2.34 15 1.68 15 1 15 C1 15.66 1 16.32 1 17 C1.66 17.66 2.32 18.32 3 19 C2.34 19.33 1.68 19.66 1 20 C0.5316735 22.58605332 0.5316735 22.58605332 0.375 25.5625 C0.30023438 26.57441406 0.22546875 27.58632813 0.1484375 28.62890625 C0.09945313 29.41136719 0.05046875 30.19382812 0 31 C0.99 31.33 1.98 31.66 3 32 C2.01 32.495 2.01 32.495 1 33 C0.5316735 35.58605332 0.5316735 35.58605332 0.375 38.5625 C0.30023438 39.57441406 0.22546875 40.58632812 0.1484375 41.62890625 C0.09945313 42.41136719 0.05046875 43.19382813 0 44 C-0.33 44 -0.66 44 -1 44 C-1.02469081 39.6217488 -1.04285557 35.24353433 -1.05493164 30.86523438 C-1.05996514 29.37531834 -1.06679242 27.88540726 -1.07543945 26.39550781 C-1.08754805 24.25584696 -1.09323807 22.11625132 -1.09765625 19.9765625 C-1.10289307 18.68830566 -1.10812988 17.40004883 -1.11352539 16.07275391 C-1 13 -1 13 0 11 C0.07033769 9.12620395 0.0843022 7.24998898 0.0625 5.375 C0.05347656 4.37210938 0.04445313 3.36921875 0.03515625 2.3359375 C0.02355469 1.56507812 0.01195312 0.79421875 0 0 Z " fill="#0B0B0B" transform="translate(8,29)"/>
<path d="M0 0 C1.340625 0.804375 2.68125 1.60875 4.0625 2.4375 C8.16935407 4.73785813 11.32892185 5.70184608 16 6 C16 6.66 16 7.32 16 8 C15.01 8 14.02 8 13 8 C13.99 8.33 14.98 8.66 16 9 C16 10.32 16 11.64 16 13 C10.72 13 5.44 13 0 13 C0 8.71 0 4.42 0 0 Z " fill="#737373" transform="translate(15,9)"/>
<path d="M0 0 C4.29 0 8.58 0 13 0 C13 0.66 13 1.32 13 2 C13.66 2 14.32 2 15 2 C14.67 3.98 14.34 5.96 14 8 C12.35 7.67 10.7 7.34 9 7 C9 6.01 9 5.02 9 4 C8.01 4.495 8.01 4.495 7 5 C7 5.99 7 6.98 7 8 C7.763125 8.226875 8.52625 8.45375 9.3125 8.6875 C13.15940482 10.56622096 14.15290114 13.30580228 16 17 C12 17 12 17 10.1484375 15.3203125 C9.56320313 14.59585938 8.97796875 13.87140625 8.375 13.125 C7.78460938 12.40570313 7.19421875 11.68640625 6.5859375 10.9453125 C5.80089844 9.98238281 5.80089844 9.98238281 5 9 C4.34 8.34 3.68 7.68 3 7 C2.01 7.495 2.01 7.495 1 8 C0 1.125 0 1.125 0 0 Z " fill="#A8A8A8" transform="translate(46,34)"/>
<path d="M0 0 C0 0.99 0 1.98 0 3 C-1.65 3 -3.3 3 -5 3 C-5.66 6.63 -6.32 10.26 -7 14 C-8.65 14.33 -10.3 14.66 -12 15 C-12 14.34 -12 13.68 -12 13 C-12.66 13 -13.32 13 -14 13 C-14 13.66 -14 14.32 -14 15 C-15.32 15.33 -16.64 15.66 -18 16 C-18 15.01 -18 14.02 -18 13 C-17.34 12.67 -16.68 12.34 -16 12 C-16.66 11.67 -17.32 11.34 -18 11 C-18 10.34 -18 9.68 -18 9 C-16.6696875 8.443125 -16.6696875 8.443125 -15.3125 7.875 C-11.40800851 5.66491048 -9.74047451 3.50171743 -7 0 C-4.3333581 -1.33332095 -2.83319697 -0.67102033 0 0 Z " fill="#4E4E4E" transform="translate(83,79)"/>
<path d="M0 0 C0.66 0 1.32 0 2 0 C2.25523438 1.03060547 2.25523438 1.03060547 2.515625 2.08203125 C2.75796875 2.98308594 3.0003125 3.88414063 3.25 4.8125 C3.48203125 5.70582031 3.7140625 6.59914063 3.953125 7.51953125 C5.15888432 10.37646099 6.40101703 11.38369034 9 13 C8.67 13.99 8.34 14.98 8 16 C7.34 15.67 6.68 15.34 6 15 C5.67 16.32 5.34 17.64 5 19 C4.67 17.68 4.34 16.36 4 15 C3.01 16.485 3.01 16.485 2 18 C1.67 16.68 1.34 15.36 1 14 C1.66 14 2.32 14 3 14 C2.01 11.69 1.02 9.38 0 7 C-0.66 8.32 -1.32 9.64 -2 11 C-2.99 11 -3.98 11 -5 11 C-4.67 11.99 -4.34 12.98 -4 14 C-5.40445835 16.2636564 -7.1967913 18.0208685 -9 20 C-9.33 19.34 -9.66 18.68 -10 18 C-9.06553465 15.96855359 -8.06775224 13.96466413 -7 12 C-8.65 12.33 -10.3 12.66 -12 13 C-11.09515208 11.84481082 -10.1755794 10.70114594 -9.25 9.5625 C-8.73953125 8.92441406 -8.2290625 8.28632812 -7.703125 7.62890625 C-5.77580829 5.78557811 -4.53769051 5.59212778 -2 5 C-0.70339566 2.50965614 -0.70339566 2.50965614 0 0 Z " fill="#949494" transform="translate(48,46)"/>
<path d="M0 0 C2.77141717 -0.08089542 5.54047819 -0.14044062 8.3125 -0.1875 C9.09818359 -0.21263672 9.88386719 -0.23777344 10.69335938 -0.26367188 C11.45068359 -0.27333984 12.20800781 -0.28300781 12.98828125 -0.29296875 C14.03302612 -0.31653442 14.03302612 -0.31653442 15.09887695 -0.34057617 C17.55146447 0.09879195 18.29910784 1.24592787 20 3 C20.99 3 21.98 3 23 3 C23.05386629 5.12472576 23.09273071 7.24983652 23.125 9.375 C23.14820312 10.55835938 23.17140625 11.74171875 23.1953125 12.9609375 C23 16 23 16 21 18 C16.125 14.375 16.125 14.375 15 11 C14.34 10.34 13.68 9.68 13 9 C13.66 9 14.32 9 15 9 C15.33 7.02 15.66 5.04 16 3 C15.34 3 14.68 3 14 3 C14 2.34 14 1.68 14 1 C9.38 1 4.76 1 0 1 C0 0.67 0 0.34 0 0 Z " fill="#8E8E8E" transform="translate(45,33)"/>
<path d="M0 0 C0 4.29 0 8.58 0 13 C-4.29 13 -8.58 13 -13 13 C-13 11.35 -13 9.7 -13 8 C-13.33 7.34 -13.66 6.68 -14 6 C-13.09507813 5.72736328 -13.09507813 5.72736328 -12.171875 5.44921875 C-8.80908701 4.39156769 -2.86728106 0 0 0 Z " fill="#4D4D4D" transform="translate(81,9)"/>
<path d="M0 0 C1.93742341 -0.02703381 3.87495479 -0.04641125 5.8125 -0.0625 C6.89144531 -0.07410156 7.97039062 -0.08570312 9.08203125 -0.09765625 C12 0 12 0 15 1 C15 2.32 15 3.64 15 5 C15.66 5 16.32 5 17 5 C17 4.34 17 3.68 17 3 C18.65 2.34 20.3 1.68 22 1 C22 1.99 22 2.98 22 4 C21.01 4 20.02 4 19 4 C19 4.99 19 5.98 19 7 C12.73 6.67 6.46 6.34 0 6 C-0.33 4.68 -0.66 3.36 -1 2 C-0.01 2 0.98 2 2 2 C1.34 1.34 0.68 0.68 0 0 Z " fill="#5B5B5B" transform="translate(65,24)"/>
<path d="M0 0 C0.66 0 1.32 0 2 0 C2 11.22 2 22.44 2 34 C1.34 34 0.68 34 0 34 C-0.33 36.31 -0.66 38.62 -1 41 C-3.66666667 38.33333333 -6.33333333 35.66666667 -9 33 C-8.67 32.34 -8.34 31.68 -8 31 C-7.38125 31.495 -6.7625 31.99 -6.125 32.5 C-4.16119096 34.19222773 -4.16119096 34.19222773 -2 34 C-2.495 32.515 -2.495 32.515 -3 31 C-2.34 31 -1.68 31 -1 31 C-0.67 20.77 -0.34 10.54 0 0 Z " fill="#2C2C2C" transform="translate(76,37)"/>
<path d="M0 0 C1.74093471 2.26321512 3.3643077 4.55233749 4.9375 6.9375 C6.92870801 10.02366039 6.92870801 10.02366039 9.3125 12.6875 C10.1478125 13.8321875 10.1478125 13.8321875 11 15 C10.67 15.99 10.34 16.98 10 18 C8.35 18.33 6.7 18.66 5 19 C4.67 16.36 4.34 13.72 4 11 C4 13.97 4 16.94 4 20 C3.01 19.67 2.02 19.34 1 19 C0.93941406 18.19175781 0.87882812 17.38351563 0.81640625 16.55078125 C0.73261719 15.48214844 0.64882813 14.41351563 0.5625 13.3125 C0.48128906 12.25675781 0.40007813 11.20101562 0.31640625 10.11328125 C0.06227134 7.0400235 0.06227134 7.0400235 -0.59765625 4.23046875 C-1 2 -1 2 0 0 Z " fill="#F0F0F0" transform="translate(59,65)"/>
<path d="M0 0 C0 5.61 0 11.22 0 17 C-1.65 17.33 -3.3 17.66 -5 18 C-6.53266582 14.93466836 -6.10276471 11.73245728 -6.0625 8.375 C-6.05798828 7.66859375 -6.05347656 6.9621875 -6.04882812 6.234375 C-6.03703875 4.48954725 -6.01910324 2.744763 -6 1 C-1.125 0 -1.125 0 0 0 Z " fill="#E6E6E6" transform="translate(53,73)"/>
<path d="M0 0 C0.33 0.99 0.66 1.98 1 3 C4.63 2.67 8.26 2.34 12 2 C12 2.66 12 3.32 12 4 C0.08442247 10.03320381 0.08442247 10.03320381 -6 9 C-8.78302561 7.85027488 -11.39854982 6.51357101 -14 5 C-10.52176885 3.84058962 -8.54104422 4.29179116 -5 5 C-5.66 3.68 -6.32 2.36 -7 1 C-5.824375 1.309375 -5.824375 1.309375 -4.625 1.625 C-3.75875 1.74875 -2.8925 1.8725 -2 2 C-1.34 1.34 -0.68 0.68 0 0 Z " fill="#BDBDBD" transform="translate(51,98)"/>
<path d="M0 0 C1.32 0.66 2.64 1.32 4 2 C3.51421457 5.12290635 3.0013988 7.99580359 2 11 C1.34 11 0.68 11 0 11 C-0.99 11.495 -0.99 11.495 -2 12 C-2 11.34 -2 10.68 -2 10 C-3.32 10 -4.64 10 -6 10 C-6.33 10.66 -6.66 11.32 -7 12 C-7.66 10.35 -8.32 8.7 -9 7 C-6.47043472 3.9083091 -3.77545388 3.09068668 0 2 C0 1.34 0 0.68 0 0 Z " fill="#DADADA" transform="translate(42,34)"/>
<path d="M0 0 C0 2.95274099 -0.43891831 4.49058403 -1.5 7.1875 C-1.7784375 7.90292969 -2.056875 8.61835938 -2.34375 9.35546875 C-2.5603125 9.89816406 -2.776875 10.44085938 -3 11 C-2.34 11.66 -1.68 12.32 -1 13 C-4.3 13 -7.6 13 -11 13 C-11 11.68 -11 10.36 -11 9 C-11.66 9 -12.32 9 -13 9 C-13.33 9.99 -13.66 10.98 -14 12 C-14 10.68 -14 9.36 -14 8 C-13.01 8 -12.02 8 -11 8 C-11 7.34 -11 6.68 -11 6 C-10.28972656 5.65066406 -9.57945313 5.30132812 -8.84765625 4.94140625 C-7.92855469 4.48636719 -7.00945313 4.03132812 -6.0625 3.5625 C-5.14597656 3.11003906 -4.22945312 2.65757813 -3.28515625 2.19140625 C-1.09471096 1.19474606 -1.09471096 1.19474606 0 0 Z " fill="#909090" transform="translate(42,9)"/>
<path d="M0 0 C0.33 0 0.66 0 1 0 C1.02715383 1.74991334 1.04646551 3.49994945 1.0625 5.25 C1.07410156 6.22453125 1.08570313 7.1990625 1.09765625 8.203125 C1.01195577 10.65758678 0.70706066 12.66168914 0 15 C-5.75 13.125 -5.75 13.125 -8 12 C-7.29445932 8.33118845 -5.72264494 5.29549466 -4 2 C-3.01 2.33 -2.02 2.66 -1 3 C-0.67 2.01 -0.34 1.02 0 0 Z " fill="#A1A1A1" transform="translate(46,75)"/>
<path d="M0 0 C0.33 0 0.66 0 1 0 C1.02721176 1.89575251 1.04649136 3.79161979 1.0625 5.6875 C1.07410156 6.74324219 1.08570313 7.79898438 1.09765625 8.88671875 C1.00865425 11.72410262 0.64939838 14.2438919 0 17 C-0.78375 16.95875 -1.5675 16.9175 -2.375 16.875 C-5.16116119 16.71271266 -5.16116119 16.71271266 -7 19 C-7.66 18.34 -8.32 17.68 -9 17 C-8.175 16.38125 -7.35 15.7625 -6.5 15.125 C-5.675 14.42375 -4.85 13.7225 -4 13 C-4 12.34 -4 11.68 -4 11 C-6.64 13.31 -9.28 15.62 -12 18 C-12.66 17.67 -13.32 17.34 -14 17 C-13.52949219 16.63648437 -13.05898438 16.27296875 -12.57421875 15.8984375 C-8.52807056 12.63136132 -5.99716574 9.93417419 -4 5 C-3.34 5 -2.68 5 -2 5 C-1.34 3.35 -0.68 1.7 0 0 Z " fill="#383838" transform="translate(52,58)"/>
<path d="M0 0 C0.66 0.33 1.32 0.66 2 1 C-0.22791998 2.12752649 -2.45725887 3.25208139 -4.6875 4.375 C-5.31333984 4.69210938 -5.93917969 5.00921875 -6.58398438 5.3359375 C-9.32261214 6.71242056 -12.02833197 8.01078221 -14.89453125 9.1015625 C-17.17215211 9.8050219 -17.17215211 9.8050219 -18 12 C-18.66 12 -19.32 12 -20 12 C-20.33 12.99 -20.66 13.98 -21 15 C-21.66 15 -22.32 15 -23 15 C-23.07541016 14.07960938 -23.07541016 14.07960938 -23.15234375 13.140625 C-23.82969396 10.73834715 -23.82969396 10.73834715 -26.50390625 9.734375 C-27.51324219 9.40953125 -28.52257813 9.0846875 -29.5625 8.75 C-30.57441406 8.41484375 -31.58632813 8.0796875 -32.62890625 7.734375 C-33.41136719 7.49203125 -34.19382813 7.2496875 -35 7 C-34.67 6.34 -34.34 5.68 -34 5 C-33.443125 5.22816406 -32.88625 5.45632812 -32.3125 5.69140625 C-21.69744175 9.68998393 -14.06796949 6.27489181 -4 2 C-3.25234375 1.59652344 -2.5046875 1.19304687 -1.734375 0.77734375 C-0.87585938 0.39255859 -0.87585938 0.39255859 0 0 Z " fill="#CCCCCC" transform="translate(70,84)"/>
<path d="M0 0 C1.65 0.33 3.3 0.66 5 1 C4.83371094 1.71285156 4.66742188 2.42570312 4.49609375 3.16015625 C3.99683811 6.01809997 3.96808587 8.5435018 4.0625 11.4375 C4.11433362 15.69937513 3.7155668 19.03275178 2 23 C2.99 23.33 3.98 23.66 5 24 C5 24.33 5 24.66 5 25 C3.02 25 1.04 25 -1 25 C-1.625 23.125 -1.625 23.125 -2 21 C-1.34 20.34 -0.68 19.68 0 19 C0.17163731 16.43707683 0.23264558 13.99654143 0.1875 11.4375 C0.18685547 10.73947266 0.18621094 10.04144531 0.18554688 9.32226562 C0.4548138 5.87149957 0.4548138 5.87149957 -1 3 C-0.67 2.01 -0.34 1.02 0 0 Z " fill="#E0E0E0" transform="translate(28,52)"/>
<path d="M0 0 C2 0.8125 2 0.8125 3.3125 2.6875 C4.25060602 5.58710043 3.32195645 7.16858709 2 9.8125 C2.66 10.4725 3.32 11.1325 4 11.8125 C-2.75 12.9375 -2.75 12.9375 -5 11.8125 C-5.1875 8.4375 -5.1875 8.4375 -5 4.8125 C-4.01 4.1525 -3.02 3.4925 -2 2.8125 C-2.66 2.8125 -3.32 2.8125 -4 2.8125 C-4 2.1525 -4 1.4925 -4 0.8125 C-2 -0.1875 -2 -0.1875 0 0 Z " fill="#C4C4C4" transform="translate(51,9.1875)"/>
<path d="M0 0 C2.27024968 -0.08097324 4.54132075 -0.13917704 6.8125 -0.1875 C8.07707031 -0.22230469 9.34164062 -0.25710937 10.64453125 -0.29296875 C14 0 14 0 15.94921875 1.51171875 C16.29597656 2.00285156 16.64273438 2.49398438 17 3 C16.01 3 15.02 3 14 3 C14 3.99 14 4.98 14 6 C12.37509046 6.02698189 10.75005367 6.04638757 9.125 6.0625 C8.22007813 6.07410156 7.31515625 6.08570313 6.3828125 6.09765625 C4 6 4 6 2 5 C2 4.01 2 3.02 2 2 C1.34 1.34 0.68 0.68 0 0 Z " fill="#A5A5A5" transform="translate(51,24)"/>
<path d="M0 0 C0.99 0.33 1.98 0.66 3 1 C3 7.6 3 14.2 3 21 C1.68 21 0.36 21 -1 21 C-1 3 -1 3 0 0 Z " fill="#3E3E3E" transform="translate(9,43)"/>
<path d="M0 0 C2 3 2 3 1.71484375 5.0859375 C-0.02826967 10.21892476 -1.7706328 13.40503788 -6 17 C-6.598125 17.598125 -7.19625 18.19625 -7.8125 18.8125 C-8.204375 19.204375 -8.59625 19.59625 -9 20 C-9.99 19.67 -10.98 19.34 -12 19 C-9.47474084 14.63818872 -7.59496742 12.14431813 -3 10 C-3 9.01 -3 8.02 -3 7 C-2.04346365 4.6485148 -1.04718798 2.31254012 0 0 Z " fill="#ECECEC" transform="translate(48,55)"/>
<path d="M0 0 C2.64 0 5.28 0 8 0 C7.8125 2.3125 7.8125 2.3125 7 5 C5.35178756 6.03013277 3.68496298 7.03114628 2 8 C1.12177688 10.08533633 1.12177688 10.08533633 1 12 C0.01 12 -0.98 12 -2 12 C-2.33 9.69 -2.66 7.38 -3 5 C-2.01 5.495 -2.01 5.495 -1 6 C-0.67 4.02 -0.34 2.04 0 0 Z " fill="#666666" transform="translate(32,33)"/>
<path d="M0 0 C2.64 1.65 5.28 3.3 8 5 C7.01 5.33 6.02 5.66 5 6 C5 7.98 5 9.96 5 12 C6.98 12 8.96 12 11 12 C11 12.33 11 12.66 11 13 C7.37 13 3.74 13 0 13 C0 8.71 0 4.42 0 0 Z " fill="#303030" transform="translate(15,9)"/>
<path d="M0 0 C6.0546875 -0.1953125 6.0546875 -0.1953125 8 0 C8.66 0.66 9.32 1.32 10 2 C9.814375 2.804375 9.62875 3.60875 9.4375 4.4375 C9.2209375 5.7059375 9.2209375 5.7059375 9 7 C10.33378575 8.8354799 10.33378575 8.8354799 12 10 C7.15340923 9.40895235 3.39251833 8.02055843 -1 6 C0 4 0 4 3 2 C2.01 2 1.02 2 0 2 C0 1.34 0 0.68 0 0 Z " fill="#888888" transform="translate(27,90)"/>
<path d="M0 0 C0.66 0 1.32 0 2 0 C2 0.66 2 1.32 2 2 C2.99 2 3.98 2 5 2 C4.37240135 4.92879371 3.41377341 7.36095629 2 10 C-3.5 10.36666667 -3.5 10.36666667 -5.875 8.625 C-7 7 -7 7 -7 5 C-5.02 5 -3.04 5 -1 5 C-0.67 3.35 -0.34 1.7 0 0 Z " fill="#8D8D8D" transform="translate(34,76)"/>
<path d="M0 0 C1.6266848 0.28211877 3.25132896 0.57602375 4.875 0.875 C5.77992187 1.03742187 6.68484375 1.19984375 7.6171875 1.3671875 C10 2 10 2 12 4 C11.625 6.625 11.625 6.625 11 9 C7.7 9 4.4 9 1 9 C1.66 7.68 2.32 6.36 3 5 C2.2236068 1.9254644 2.2236068 1.9254644 0 0 Z " fill="#8A8A8A" transform="translate(57,13)"/>
<path d="M0 0 C1.34565187 0.98336098 2.67508126 1.9888778 4 3 C4.79277344 3.59748047 4.79277344 3.59748047 5.6015625 4.20703125 C7.12487635 5.40185799 8.56747601 6.69770546 10 8 C10 8.99 10 9.98 10 11 C9.34 11 8.68 11 8 11 C8.33 13.31 8.66 15.62 9 18 C6.87491756 14.81237635 6.4979837 12.73487777 6 9 C4.68 9.99 3.36 10.98 2 12 C0.70756464 7.8803623 -0.26252625 4.33168317 0 0 Z " fill="#686868" transform="translate(44,37)"/>
<path d="M0 0 C0.99 0.33 1.98 0.66 3 1 C2.18957164 2.48030272 1.37659652 3.95921142 0.5625 5.4375 C0.11003906 6.26121094 -0.34242187 7.08492188 -0.80859375 7.93359375 C-2 10 -2 10 -3 11 C-3.36760731 13.32817964 -3.70241581 15.6618385 -4 18 C-4.33 17.34 -4.66 16.68 -5 16 C-5.99 16.33 -6.98 16.66 -8 17 C-7.23734699 13.71592276 -6.23210211 10.55899135 -5.125 7.375 C-4.79757813 6.41335937 -4.47015625 5.45171875 -4.1328125 4.4609375 C-3 2 -3 2 0 0 Z " fill="#F7F7F7" transform="translate(39,57)"/>
<path d="M0 0 C0.33 0 0.66 0 1 0 C0.67 4.62 0.34 9.24 0 14 C-2.475 13.01 -2.475 13.01 -5 12 C-5.886875 11.835 -6.77375 11.67 -7.6875 11.5 C-10 11 -10 11 -12 9 C-12 8.01 -12 7.02 -12 6 C-11.236875 6.309375 -10.47375 6.61875 -9.6875 6.9375 C-7.81210323 7.67893593 -5.91315348 8.36228217 -4 9 C-2.68 6.03 -1.36 3.06 0 0 Z " fill="#727272" transform="translate(72,47)"/>
<path d="M0 0 C1.74565111 3.21639654 2.204437 5.32013404 2 9 C2.99 9.33 3.98 9.66 5 10 C7 13 7 13 8 15 C10.53388471 16.55931367 12.77156092 17.19615956 15.6875 17.9375 C17.3271875 18.4634375 17.3271875 18.4634375 19 19 C19.33 19.99 19.66 20.98 20 22 C12.81119231 21.6313432 6.86496652 17.19895742 1.9375 12.1875 C-0.6108904 7.99498677 -0.47792384 4.7792384 0 0 Z " fill="#1C1C1C" transform="translate(17,67)"/>
<path d="M0 0 C0.33 0 0.66 0 1 0 C1.06058594 0.63808594 1.12117188 1.27617188 1.18359375 1.93359375 C1.26738281 2.75988281 1.35117187 3.58617188 1.4375 4.4375 C1.51871094 5.26121094 1.59992187 6.08492188 1.68359375 6.93359375 C1.78930815 8.98662025 1.78930815 8.98662025 3 10 C3.12562235 11.76747729 3.17576558 13.54060292 3.1875 15.3125 C3.20167969 16.27800781 3.21585938 17.24351563 3.23046875 18.23828125 C2.99873224 21.01519158 2.42140844 22.63473141 1 25 C0.01 25 -0.98 25 -2 25 C-2.33 25.66 -2.66 26.32 -3 27 C-3 26.01 -3 25.02 -3 24 C-2.01 23.67 -1.02 23.34 0 23 C-0.165 21.865625 -0.33 20.73125 -0.5 19.5625 C-1.32077275 12.93769139 -1.34596745 6.56159131 0 0 Z " fill="#8B8B8B" transform="translate(57,62)"/>
<path d="M0 0 C1.9375 0.8125 1.9375 0.8125 4 2 C4.33 2.99 4.66 3.98 5 5 C6.65 4.67 8.3 4.34 10 4 C10.33 4.66 10.66 5.32 11 6 C9.68 6.33 8.36 6.66 7 7 C9.03802135 11.06024321 9.03802135 11.06024321 13 13 C12.67 13.66 12.34 14.32 12 15 C7.32307692 13.52307692 7.32307692 13.52307692 5.6875 10.875 C5.3471875 9.946875 5.3471875 9.946875 5 9 C4.01 9.495 4.01 9.495 3 10 C2.34 8.02 1.68 6.04 1 4 C0.34 4 -0.32 4 -1 4 C-0.67 2.68 -0.34 1.36 0 0 Z " fill="#727272" transform="translate(53,46)"/>
<path d="M0 0 C0.9796875 0.00322266 1.959375 0.00644531 2.96875 0.00976562 C3.98453125 0.01814453 5.0003125 0.02652344 6.046875 0.03515625 C7.59375 0.04192383 7.59375 0.04192383 9.171875 0.04882812 C11.71360073 0.06059537 14.25520819 0.07703614 16.796875 0.09765625 C16.796875 0.75765625 16.796875 1.41765625 16.796875 2.09765625 C18.22 2.03578125 18.22 2.03578125 19.671875 1.97265625 C22.796875 2.09765625 22.796875 2.09765625 24.796875 4.09765625 C24.136875 4.75765625 23.476875 5.41765625 22.796875 6.09765625 C22.136875 5.43765625 21.476875 4.77765625 20.796875 4.09765625 C13.01771346 1.2971581 4.94789351 1.91960002 -3.203125 2.09765625 C-3.203125 3.08765625 -3.203125 4.07765625 -3.203125 5.09765625 C-4.523125 4.10765625 -5.843125 3.11765625 -7.203125 2.09765625 C-7.203125 2.75765625 -7.203125 3.41765625 -7.203125 4.09765625 C-8.523125 4.42765625 -9.843125 4.75765625 -11.203125 5.09765625 C-10.453125 3.16015625 -10.453125 3.16015625 -9.203125 1.09765625 C-6.13626479 0.00802388 -3.23166821 -0.01878877 0 0 Z " fill="#494949" transform="translate(49.203125,31.90234375)"/>
<path d="M0 0 C-0.99 0.495 -0.99 0.495 -2 1 C-2 1.99 -2 2.98 -2 4 C-1.01 3.67 -0.02 3.34 1 3 C0.67 3.99 0.34 4.98 0 6 C-4.16138263 6.08159574 -7.9472484 5.98248524 -12 5 C-12 3.68 -12 2.36 -12 1 C-7.9472484 0.01751476 -4.16138263 -0.08159574 0 0 Z " fill="#4E4E4E" transform="translate(29,24)"/>
<path d="M0 0 C3.37404518 3.23908338 6.3888465 6.73272547 9.4140625 10.29296875 C10.90631704 12.09935724 10.90631704 12.09935724 13 13 C13 13.99 13 14.98 13 16 C9.21384982 15.78364856 8.08006093 15.08196714 5.375 12.3125 C2.48418355 8.51887337 0 4.87548507 0 0 Z " fill="#F9F9F9" transform="translate(60,61)"/>
<path d="M0 0 C1.00160156 0.0721875 2.00320312 0.144375 3.03515625 0.21875 C4.3775953 0.31262686 5.72004373 0.40636969 7.0625 0.5 C9.02896484 0.63921875 9.02896484 0.63921875 11.03515625 0.78125 C14.70075995 0.9834902 18.32990952 1.0381804 22 1 C19.54532786 3.68845043 17.68967049 4.80025213 13.984375 5.23828125 C8.08536794 5.43422729 4.87655448 4.32020731 0 1 C0 0.67 0 0.34 0 0 Z " fill="#BBBBBB" transform="translate(55,10)"/>
<path d="M0 0 C0.70125 0.144375 1.4025 0.28875 2.125 0.4375 C1.795 2.0875 1.465 3.7375 1.125 5.4375 C0.135 5.4375 -0.855 5.4375 -1.875 5.4375 C-1.545 6.4275 -1.215 7.4175 -0.875 8.4375 C-2.27945835 10.7011564 -4.0717913 12.4583685 -5.875 14.4375 C-6.205 13.7775 -6.535 13.1175 -6.875 12.4375 C-5.94053465 10.40605359 -4.94275224 8.40216413 -3.875 6.4375 C-5.525 6.7675 -7.175 7.0975 -8.875 7.4375 C-3.7809081 0.57535558 -3.7809081 0.57535558 0 0 Z " fill="#828282" transform="translate(44.875,51.5625)"/>
<path d="M0 0 C0.33 0 0.66 0 1 0 C1.66 2.64 2.32 5.28 3 8 C3.33 7.01 3.66 6.02 4 5 C4.66 5.33 5.32 5.66 6 6 C6.33 6.99 6.66 7.98 7 9 C8.65 8.67 10.3 8.34 12 8 C11.67 8.99 11.34 9.98 11 11 C7.38282596 11.94735511 5.30301613 12.09147657 1.6875 11 C-1 9 -1 9 -2 5.4375 C-2 2 -2 2 0 0 Z " fill="#4E4E4E" transform="translate(19,83)"/>
<path d="M0 0 C3.96 0 7.92 0 12 0 C11.01 0.33 10.02 0.66 9 1 C8.67 2.65 8.34 4.3 8 6 C5.03 6 2.06 6 -1 6 C-0.67 4.02 -0.34 2.04 0 0 Z " fill="#9D9D9D" transform="translate(30,24)"/>
<path d="M0 0 C-0.66 0 -1.32 0 -2 0 C-2 0.99 -2 1.98 -2 3 C-1.34 3.33 -0.68 3.66 0 4 C0.33 2.68 0.66 1.36 1 0 C2.32 0 3.64 0 5 0 C4.67 1.65 4.34 3.3 4 5 C-0.51718381 6.36884358 -3.58774263 5.47075246 -8 4 C-7.1875 2.0625 -7.1875 2.0625 -6 0 C-3 -1 -3 -1 0 0 Z " fill="#B4B4B4" transform="translate(45,25)"/>
<path d="M0 0 C1.65 0 3.3 0 5 0 C5.33 0.99 5.66 1.98 6 3 C6.78375 3.45375 7.5675 3.9075 8.375 4.375 C12.20293401 6.74467344 13.47097479 9.63075827 15.0625 13.75 C15.77997664 16.16232993 15.77997664 16.16232993 18 17 C17.67 17.66 17.34 18.32 17 19 C15.35 18.01 13.7 17.02 12 16 C12.33 15.01 12.66 14.02 13 13 C12.195625 12.401875 11.39125 11.80375 10.5625 11.1875 C8 9 8 9 7 6 C4.99983534 4.79117904 4.99983534 4.79117904 3 4 C3 3.01 3 2.02 3 1 C2.01 0.67 1.02 0.34 0 0 Z " fill="#515151" transform="translate(50,38)"/>
<path d="M0 0 C2.31 0.33 4.62 0.66 7 1 C7 1.99 7 2.98 7 4 C7.763125 4.226875 8.52625 4.45375 9.3125 4.6875 C13.15940482 6.56622096 14.15290114 9.30580228 16 13 C12 13 12 13 10.1484375 11.3203125 C9.56320313 10.59585938 8.97796875 9.87140625 8.375 9.125 C7.78460938 8.40570313 7.19421875 7.68640625 6.5859375 6.9453125 C6.06257813 6.30335937 5.53921875 5.66140625 5 5 C4.34 4.34 3.68 3.68 3 3 C2.01 3.495 2.01 3.495 1 4 C0.67 2.68 0.34 1.36 0 0 Z " fill="#EDEDED" transform="translate(46,38)"/>
<path d="M0 0 C1.93742341 -0.02703381 3.87495479 -0.04641125 5.8125 -0.0625 C6.89144531 -0.07410156 7.97039062 -0.08570312 9.08203125 -0.09765625 C12 0 12 0 15 1 C15 2.32 15 3.64 15 5 C13.68 5 12.36 5 11 5 C11 3.68 11 2.36 11 1 C9.02 1.33 7.04 1.66 5 2 C4.67 2.99 4.34 3.98 4 5 C4.99 5.33 5.98 5.66 7 6 C4.69 6 2.38 6 0 6 C-0.33 4.68 -0.66 3.36 -1 2 C-0.01 2 0.98 2 2 2 C1.34 1.34 0.68 0.68 0 0 Z " fill="#535353" transform="translate(65,24)"/>
<path d="M0 0 C2.5654594 2.5654594 2.54046087 4.47686668 3 8 C2.01 7.34 1.02 6.68 0 6 C-0.37125 6.721875 -0.7425 7.44375 -1.125 8.1875 C-3.38636508 11.57954762 -5.79212057 13.50498266 -9 16 C-9 12.00240978 -7.21206569 10.24897149 -5 7 C-5 6.34 -5 5.68 -5 5 C-4.01 4.67 -3.02 4.34 -2 4 C-0.79117904 1.99983534 -0.79117904 1.99983534 0 0 Z " fill="#C5C5C5" transform="translate(48,52)"/>
<path d="M0 0 C0.66 0 1.32 0 2 0 C2.19441368 2.2910905 2.38033135 4.58290337 2.5625 6.875 C2.66691406 8.15117188 2.77132813 9.42734375 2.87890625 10.7421875 C3 14 3 14 2 16 C1.01 16 0.02 16 -1 16 C-2.22602512 12.32192463 -1.70295577 10.11756073 -1.0625 6.3125 C-0.86785156 5.13300781 -0.67320313 3.95351563 -0.47265625 2.73828125 C-0.31667969 1.83464844 -0.16070313 0.93101563 0 0 Z " fill="#686868" transform="translate(24,57)"/>
<path d="M0 0 C7.41834582 -0.09377123 14.66236293 -0.17402193 22 1 C22 1.33 22 1.66 22 2 C19.69 2 17.38 2 15 2 C14.67 3.32 14.34 4.64 14 6 C13.34 6 12.68 6 12 6 C12 5.01 12 4.02 12 3 C7.71 2.67 3.42 2.34 -1 2 C-0.67 1.34 -0.34 0.68 0 0 Z " fill="#BABABA" transform="translate(15,22)"/>
<path d="M0 0 C2.31 0.66 4.62 1.32 7 2 C7.33 1.34 7.66 0.68 8 0 C8.99 0.99 9.98 1.98 11 3 C9.68 3.33 8.36 3.66 7 4 C7 4.66 7 5.32 7 6 C8.65 6.33 10.3 6.66 12 7 C12 7.66 12 8.32 12 9 C11.01 9.33 10.02 9.66 9 10 C5.52194487 7.91316692 2.73897194 4.9672196 0 2 C0 1.34 0 0.68 0 0 Z " fill="#BFBFBF" transform="translate(62,62)"/>
<path d="M0 0 C2.64 0 5.28 0 8 0 C8 0.33 8 0.66 8 1 C6.35 1 4.7 1 3 1 C3 2.32 3 3.64 3 5 C4.65 5 6.3 5 8 5 C8 5.33 8 5.66 8 6 C-1.41002278 7.51708428 -1.41002278 7.51708428 -6 5 C-5.67 4.34 -5.34 3.68 -5 3 C-4.01 3.33 -3.02 3.66 -2 4 C-2 3.34 -2 2.68 -2 2 C-1.34 2 -0.68 2 0 2 C0 1.34 0 0.68 0 0 Z " fill="#212121" transform="translate(14,24)"/>
<path d="M0 0 C2.475 0.99 2.475 0.99 5 2 C4.8125 4.3125 4.8125 4.3125 4 7 C1.5625 8.875 1.5625 8.875 -1 10 C-1.66 9.67 -2.32 9.34 -3 9 C-2.01 6.03 -1.02 3.06 0 0 Z " fill="#313131" transform="translate(78,82)"/>
<path d="M0 0 C1.78764869 2.3239433 3.4460323 4.67580652 5.0625 7.125 C7.50300435 10.74639355 8.77136925 12.15427385 13 13 C13.33 12.34 13.66 11.68 14 11 C13.6875 13.375 13.6875 13.375 13 16 C12.01 16.66 11.02 17.32 10 18 C9.4225 17.113125 8.845 16.22625 8.25 15.3125 C6.86737849 13.22876192 5.45491776 11.32666311 3.875 9.375 C1.31924178 6.13770626 0 4.15763781 0 0 Z " fill="#9C9C9C" transform="translate(60,64)"/>
<path d="M0 0 C0.33 0 0.66 0 1 0 C1 6.93 1 13.86 1 21 C0.01 21 -0.98 21 -2 21 C-2 20.34 -2 19.68 -2 19 C-2.969375 18.731875 -3.93875 18.46375 -4.9375 18.1875 C-5.948125 17.795625 -6.95875 17.40375 -8 17 C-8.33 16.01 -8.66 15.02 -9 14 C-5.89656201 15.20689255 -2.98806107 16.50596946 0 18 C0 12.06 0 6.12 0 0 Z " fill="#545454" transform="translate(74,44)"/>
<path d="M0 0 C0.66 0.33 1.32 0.66 2 1 C2 1.66 2 2.32 2 3 C3.32 2.34 4.64 1.68 6 1 C3.99746068 5.73327475 0.6063662 9.3936338 -3 13 C-2.69128878 11.20767663 -2.37790936 9.41615679 -2.0625 7.625 C-1.88847656 6.62726562 -1.71445312 5.62953125 -1.53515625 4.6015625 C-1 2 -1 2 0 0 Z " fill="#F1F1F1" transform="translate(35,51)"/>
<path d="M0 0 C1.32 1.32 2.64 2.64 4 4 C3.01 4.495 3.01 4.495 2 5 C1.5316735 7.58605332 1.5316735 7.58605332 1.375 10.5625 C1.30023438 11.57441406 1.22546875 12.58632813 1.1484375 13.62890625 C1.09945313 14.41136719 1.05046875 15.19382812 1 16 C1.99 16.33 2.98 16.66 4 17 C3.34 17.33 2.68 17.66 2 18 C1.5316735 20.58605332 1.5316735 20.58605332 1.375 23.5625 C1.30023438 24.57441406 1.22546875 25.58632812 1.1484375 26.62890625 C1.09945313 27.41136719 1.05046875 28.19382812 1 29 C0.67 29 0.34 29 0 29 C0 19.43 0 9.86 0 0 Z " fill="#020202" transform="translate(7,44)"/>
<path d="M0 0 C4.03174806 0.27489191 5.56894631 0.53491576 8.375 3.5625 C8.91125 4.366875 9.4475 5.17125 10 6 C8.68 5.67 7.36 5.34 6 5 C5.34 6.65 4.68 8.3 4 10 C3.34 9.67 2.68 9.34 2 9 C2 7.35 2 5.7 2 4 C1.34 3.67 0.68 3.34 0 3 C0 2.01 0 1.02 0 0 Z " fill="#505050" transform="translate(13,79)"/>
<path d="M0 0 C1 3 1 3 0 5.375 C-2.49743051 8.65287755 -5.30604101 11.13316051 -9 13 C-10.32 13 -11.64 13 -13 13 C-13 12.34 -13 11.68 -13 11 C-12.29875 10.773125 -11.5975 10.54625 -10.875 10.3125 C-6.58123067 8.35230096 -3.06005416 5.78281836 -0.625 1.6875 C-0.41875 1.130625 -0.2125 0.57375 0 0 Z " fill="#D8D8D8" transform="translate(49,65)"/>
<path d="M0 0 C0 3.38023517 -0.87455622 5.83468937 -2 9 C-3.32 8.67 -4.64 8.34 -6 8 C-6.33 6.02 -6.66 4.04 -7 2 C-4.69 1.34 -2.38 0.68 0 0 Z " fill="#606060" transform="translate(74,13)"/>
<path d="M0 0 C0.70125 0.268125 1.4025 0.53625 2.125 0.8125 C2.125 1.8025 2.125 2.7925 2.125 3.8125 C0.475 3.8125 -1.175 3.8125 -2.875 3.8125 C-3.205 4.8025 -3.535 5.7925 -3.875 6.8125 C-4.535 6.1525 -5.195 5.4925 -5.875 4.8125 C-6.865 4.8125 -7.855 4.8125 -8.875 4.8125 C-3.58269231 -0.23365385 -3.58269231 -0.23365385 0 0 Z " fill="#878787" transform="translate(80.875,78.1875)"/>
<path d="M0 0 C0.66 0.33 1.32 0.66 2 1 C2.59355614 3.64860427 2.74209269 6.29197322 3 9 C2.34 8.01 1.68 7.02 1 6 C1.2475 7.1446875 1.2475 7.1446875 1.5 8.3125 C2 11 2 11 2 14 C-0.0625 11.9375 -0.0625 11.9375 -2 9 C-1.82788085 5.61498997 -1.51858769 3.03717538 0 0 Z " fill="#D5D5D5" transform="translate(29,34)"/>
<path d="M0 0 C-4.72194167 3.77755334 -9.25928072 3.30096975 -15 3 C-15.33 2.34 -15.66 1.68 -16 1 C-15.11248047 0.90912109 -15.11248047 0.90912109 -14.20703125 0.81640625 C-10.78253194 0.45328642 -7.43373269 0.09228355 -4.0625 -0.625 C-2 -1 -2 -1 0 0 Z " fill="#C4C4C4" transform="translate(39,12)"/>
<path d="M0 0 C2.52259061 1.97420135 2.9929808 2.96745642 3.6875 6.1875 C3.790625 7.115625 3.89375 8.04375 4 9 C2.68 9.33 1.36 9.66 0 10 C-1.49106457 7.01787087 -1.11941467 4.28390342 -1 1 C-0.67 0.67 -0.34 0.34 0 0 Z " fill="#707070" transform="translate(25,43)"/>
<path d="M0 0 C4.17576168 0.68416434 7.88080407 2.01365009 11.8125 3.5625 C13.55466797 4.24505859 13.55466797 4.24505859 15.33203125 4.94140625 C16.21246094 5.29074219 17.09289062 5.64007813 18 6 C14.71032467 7.09655844 13.33927854 6.90592971 10 6.25 C9.13375 6.09015625 8.2675 5.9303125 7.375 5.765625 C4.76642364 4.92470236 3.74986254 4.06233799 2 2 C1.34 1.34 0.68 0.68 0 0 Z " fill="#CCCCCC" transform="translate(28,97)"/>
<path d="M0 0 C0.66 0 1.32 0 2 0 C2.33 0.99 2.66 1.98 3 3 C1.06767179 3.86580287 -0.87107194 4.71729941 -2.8125 5.5625 C-3.89144531 6.03816406 -4.97039062 6.51382813 -6.08203125 7.00390625 C-9 8 -9 8 -12 7 C-10.37750059 6.16180842 -8.75191503 5.3295884 -7.125 4.5 C-6.22007813 4.0359375 -5.31515625 3.571875 -4.3828125 3.09375 C-2 2 -2 2 0 2 C0 1.34 0 0.68 0 0 Z " fill="#787878" transform="translate(69,92)"/>
<path d="M0 0 C0.33 0.99 0.66 1.98 1 3 C1.99 3.33 2.98 3.66 4 4 C3.938125 4.763125 3.87625 5.52625 3.8125 6.3125 C3.74101915 9.04525312 3.74101915 9.04525312 5.5 10.8125 C5.995 11.204375 6.49 11.59625 7 12 C4.08482708 10.92598892 2.22189824 10.22189824 0 8 C-0.93312508 4.69164744 -1.10773342 3.32320026 0 0 Z " fill="#282828" transform="translate(12,79)"/>
<path d="M0 0 C1.66666667 3.33333333 3.33333333 6.66666667 5 10 C5.66 9.34 6.32 8.68 7 8 C7 9.98 7 11.96 7 14 C6.01 14 5.02 14 4 14 C3.67 13.01 3.34 12.02 3 11 C2.34 10.67 1.68 10.34 1 10 C0.5859375 7.71484375 0.5859375 7.71484375 0.375 4.9375 C0.30023437 4.01839844 0.22546875 3.09929687 0.1484375 2.15234375 C0.09945313 1.44207031 0.05046875 0.73179688 0 0 Z " fill="#393939" transform="translate(18,66)"/>
<path d="M0 0 C0.66 0 1.32 0 2 0 C3.20272819 2.40545638 3.10071472 3.94996953 3.0625 6.625 C3.05347656 7.44226562 3.04445313 8.25953125 3.03515625 9.1015625 C3.02355469 9.72804688 3.01195312 10.35453125 3 11 C1.35 9.35 -0.3 7.7 -2 6 C-1.34 4.02 -0.68 2.04 0 0 Z " fill="#B4B4B4" transform="translate(48,46)"/>
<path d="M0 0 C1.9375 0.75 1.9375 0.75 4 2 C4.75 4.125 4.75 4.125 5 6 C4.34 6 3.68 6 3 6 C3.33 8.31 3.66 10.62 4 13 C1.12420019 8.68630028 0 5.19265239 0 0 Z " fill="#505050" transform="translate(49,42)"/>
<path d="M0 0 C0.33 0 0.66 0 1 0 C1 5.94 1 11.88 1 18 C0.34 18 -0.32 18 -1 18 C-1 18.66 -1 19.32 -1 20 C-2.32 19.67 -3.64 19.34 -5 19 C-4 17 -4 17 -1 16 C-0.67 10.72 -0.34 5.44 0 0 Z " fill="#7F7F7F" transform="translate(13,8)"/>
<path d="M0 0 C2.475 0.495 2.475 0.495 5 1 C5 1.66 5 2.32 5 3 C5.66 3 6.32 3 7 3 C7 4.65 7 6.3 7 8 C5.02 8.33 3.04 8.66 1 9 C1.350625 8.401875 1.70125 7.80375 2.0625 7.1875 C3.33304698 4.89186786 3.33304698 4.89186786 2 2 C1.34 1.34 0.68 0.68 0 0 Z " fill="#919191" transform="translate(57,13)"/>
<path d="M0 0 C0.763125 0.515625 1.52625 1.03125 2.3125 1.5625 C3.199375 2.036875 4.08625 2.51125 5 3 C5.99 2.67 6.98 2.34 8 2 C8.625 4.3125 8.625 4.3125 9 7 C8.01 8.485 8.01 8.485 7 10 C6.67 9.01 6.34 8.02 6 7 C4.00334402 5.32932867 2.00348966 3.66247014 0 2 C0 1.34 0 0.68 0 0 Z " fill="#404040" transform="translate(67,68)"/>
<path d="M0 0 C0.33 0 0.66 0 1 0 C1 4.29 1 8.58 1 13 C-0.65 13 -2.3 13 -4 13 C-3.01 12.67 -2.02 12.34 -1 12 C-1.14308594 10.95199219 -1.14308594 10.95199219 -1.2890625 9.8828125 C-1.39992188 8.97273438 -1.51078125 8.06265625 -1.625 7.125 C-1.74101563 6.22007813 -1.85703125 5.31515625 -1.9765625 4.3828125 C-1.98429687 3.59648437 -1.99203125 2.81015625 -2 2 C-1.34 1.34 -0.68 0.68 0 0 Z " fill="#2F2F2F" transform="translate(80,9)"/>
<path d="M0 0 C0.99 0.33 1.98 0.66 3 1 C2.67 1.99 2.34 2.98 2 4 C0.3523962 4.71247732 -1.31763529 5.37400383 -3 6 C-4.36365283 6.95824253 -5.70794169 7.94721175 -7 9 C-7 7.35 -7 5.7 -7 4 C-4.92446352 3.4465236 -3.15634036 3 -1 3 C-0.67 2.01 -0.34 1.02 0 0 Z " fill="#B2B2B2" transform="translate(43,63)"/>
<path d="M0 0 C0.33 0 0.66 0 1 0 C1.04898437 0.63808594 1.09796875 1.27617188 1.1484375 1.93359375 C1.22320313 2.75988281 1.29796875 3.58617188 1.375 4.4375 C1.44460937 5.26121094 1.51421875 6.08492188 1.5859375 6.93359375 C1.72257812 7.61550781 1.85921875 8.29742187 2 9 C2.66 9.33 3.32 9.66 4 10 C2.35 9.67 0.7 9.34 -1 9 C-1.625 5.625 -1.625 5.625 -2 2 C-1.34 1.34 -0.68 0.68 0 0 Z " fill="#404040" transform="translate(19,83)"/>
<path d="M0 0 C0.66 0.33 1.32 0.66 2 1 C2 3.97 2 6.94 2 10 C1.01 10 0.02 10 -1 10 C-1 1 -1 1 0 0 Z " fill="#3F3F3F" transform="translate(77,11)"/>
<path d="M0 0 C0 0.66 0 1.32 0 2 C-4.74354436 4.22656164 -8.72250715 5.46148032 -14 6 C-12.53706784 3.07413567 -10.59729902 2.94053412 -7.5625 1.875 C-6.57378906 1.52179688 -5.58507812 1.16859375 -4.56640625 0.8046875 C-2 0 -2 0 0 0 Z " fill="#A6A6A6" transform="translate(63,100)"/>
<path d="M0 0 C1.41377341 2.63904371 2.37240135 5.07120629 3 8 C0.36 8 -2.28 8 -5 8 C-5 6.68 -5 5.36 -5 4 C-3.02 4.495 -3.02 4.495 -1 5 C-0.67 3.35 -0.34 1.7 0 0 Z " fill="#C8C8C8" transform="translate(35,68)"/>
<path d="M0 0 C1.32 0.66 2.64 1.32 4 2 C3.34 3.65 2.68 5.3 2 7 C1.01 7 0.02 7 -1 7 C-1.99 7.495 -1.99 7.495 -3 8 C-3 6.35 -3 4.7 -3 3 C-2.01 2.67 -1.02 2.34 0 2 C0 1.34 0 0.68 0 0 Z " fill="#C7C7C7" transform="translate(42,34)"/>
<path d="M0 0 C2.475 0.495 2.475 0.495 5 1 C5 1.99 5 2.98 5 4 C4.01 4 3.02 4 2 4 C1.67 7.63 1.34 11.26 1 15 C0.67 15 0.34 15 0 15 C0 10.05 0 5.1 0 0 Z " fill="#5E5E5E" transform="translate(82,8)"/>
<path d="M0 0 C1.04449911 3.13349732 0.93423645 3.98968256 0 7 C-1.65 7.33 -3.3 7.66 -5 8 C-3.375 2.25 -3.375 2.25 0 0 Z " fill="#A1A1A1" transform="translate(39,13)"/>
<path d="M0 0 C0.53625 0.474375 1.0725 0.94875 1.625 1.4375 C4.42842836 3.28186076 6.69620258 3.62456847 10 4 C10.33 4.99 10.66 5.98 11 7 C6.00088076 6.52389341 3.02167317 4.96837781 -1 2 C-0.67 1.34 -0.34 0.68 0 0 Z " fill="#2C2C2C" transform="translate(26,82)"/>
<path d="M0 0 C1.9375 0.6875 1.9375 0.6875 4 2 C4.875 4.4375 4.875 4.4375 5 7 C4.01 8.485 4.01 8.485 3 10 C2.34 8.02 1.68 6.04 1 4 C0.34 4 -0.32 4 -1 4 C-0.67 2.68 -0.34 1.36 0 0 Z " fill="#8D8D8D" transform="translate(53,46)"/>
<path d="M0 0 C3.02419525 0.58803797 6.01758453 1.22678118 9 2 C8.67 3.32 8.34 4.64 8 6 C8 5.01 8 4.02 8 3 C5.36 3.33 2.72 3.66 0 4 C-0.33 3.34 -0.66 2.68 -1 2 C-0.67 1.34 -0.34 0.68 0 0 Z " fill="#939393" transform="translate(47,35)"/>
<path d="M0 0 C0.598125 0.350625 1.19625 0.70125 1.8125 1.0625 C0.8225 1.0625 -0.1675 1.0625 -1.1875 1.0625 C-1.8475 2.7125 -2.5075 4.3625 -3.1875 6.0625 C-3.8475 6.0625 -4.5075 6.0625 -5.1875 6.0625 C-5.1875 4.0825 -5.1875 2.1025 -5.1875 0.0625 C-2.1875 -0.9375 -2.1875 -0.9375 0 0 Z " fill="#4F4F4F" transform="translate(25.1875,14.9375)"/>
<path d="M0 0 C6.15234375 0.5859375 6.15234375 0.5859375 8 1 C8.33 1.66 8.66 2.32 9 3 C11.52733235 3.65555119 11.52733235 3.65555119 14 4 C14 4.33 14 4.66 14 5 C7.88225104 5.49940808 4.97504047 4.24900602 0 1 C0 0.67 0 0.34 0 0 Z " fill="#CDCDCD" transform="translate(55,10)"/>
<path d="M0 0 C1.4783226 2.95664519 1.06032783 5.74229737 1 9 C1.66 9.33 2.32 9.66 3 10 C3 10.66 3 11.32 3 12 C2.01 12.33 1.02 12.66 0 13 C0 12.34 0 11.68 0 11 C-0.66 10.67 -1.32 10.34 -2 10 C-1.34 10 -0.68 10 0 10 C-0.33 9.34 -0.66 8.68 -1 8 C-1.125 4.4375 -1.125 4.4375 -1 1 C-0.67 0.67 -0.34 0.34 0 0 Z " fill="#535353" transform="translate(63,75)"/>
<path d="M0 0 C0.99 0.33 1.98 0.66 3 1 C2.43224464 2.29858939 1.84508337 3.58870441 1.25 4.875 C0.92515625 5.59429687 0.6003125 6.31359375 0.265625 7.0546875 C-1.21929686 9.3370674 -2.50415408 10.00375898 -5 11 C-3.89367046 8.70223864 -2.71939295 6.54671169 -1.375 4.375 C0.16701209 2.16890995 0.16701209 2.16890995 0 0 Z " fill="#F1F1F1" transform="translate(43,57)"/>
<path d="M0 0 C1.98 0.495 1.98 0.495 4 1 C3.67 2.32 3.34 3.64 3 5 C3.99 5.33 4.98 5.66 6 6 C3.69 6 1.38 6 -1 6 C-0.67 4.02 -0.34 2.04 0 0 Z " fill="#808080" transform="translate(30,24)"/>
<path d="M0 0 C5.75 0.75 5.75 0.75 8 3 C6.35 3 4.7 3 3 3 C2.67 3.66 2.34 4.32 2 5 C1.01 5.495 1.01 5.495 0 6 C0 4.02 0 2.04 0 0 Z " fill="#636363" transform="translate(24,87)"/>
<path d="M0 0 C0.66 0.33 1.32 0.66 2 1 C2.6328125 3.06640625 2.6328125 3.06640625 3.125 5.5625 C3.29257812 6.38878906 3.46015625 7.21507812 3.6328125 8.06640625 C3.75398438 8.70449219 3.87515625 9.34257813 4 10 C1.525 9.01 1.525 9.01 -1 8 C-0.67 5.36 -0.34 2.72 0 0 Z " fill="#E7E7E7" transform="translate(53,49)"/>
<path d="M0 0 C4.23429756 1.31061591 8.07407404 2.94356259 12 5 C9 6 9 6 6.125 4.625 C5.09375 4.08875 4.0625 3.5525 3 3 C0.26427415 2.30092586 0.26427415 2.30092586 -2 2 C-1.34 1.34 -0.68 0.68 0 0 Z " fill="#D4D4D4" transform="translate(16,91)"/>
<path d="M0 0 C1.32 0.33 2.64 0.66 4 1 C3.52797514 5.24822374 1.03344482 7.19989709 -2 10 C-1.67 9.2575 -1.34 8.515 -1 7.75 C0.22782871 4.86116688 0.22782871 4.86116688 0 1 C0 0.67 0 0.34 0 0 Z " fill="#999999" transform="translate(40,56)"/>
<path d="M0 0 C1.8125 1.4375 1.8125 1.4375 3 3 C2.01 3.33 1.02 3.66 0 4 C0 4.66 0 5.32 0 6 C-0.66 6 -1.32 6 -2 6 C-2 4.68 -2 3.36 -2 2 C-2.99 1.67 -3.98 1.34 -5 1 C-2.6875 0.3125 -2.6875 0.3125 0 0 Z " fill="#252525" transform="translate(82,23)"/>
<path d="M0 0 C2.64 0.33 5.28 0.66 8 1 C8 2.32 8 3.64 8 5 C6.68 5 5.36 5 4 5 C4 3.68 4 2.36 4 1 C2.68 0.67 1.36 0.34 0 0 Z " fill="#404040" transform="translate(72,24)"/>
<path d="M0 0 C0 3.11227195 -0.45627049 5.94152152 -1 9 C-1.99 9 -2.98 9 -4 9 C-4 6.69 -4 4.38 -4 2 C-2.68 1.34 -1.36 0.68 0 0 Z " fill="#DBDBDB" transform="translate(50,12)"/>
<path d="M0 0 C0.66 0 1.32 0 2 0 C0.55527654 3.80881639 -1.32603071 5.29742886 -5 7 C-5.99 6.67 -6.98 6.34 -8 6 C-2.25 2 -2.25 2 0 2 C0 1.34 0 0.68 0 0 Z " fill="#A8A8A8" transform="translate(40,6)"/>
<path d="M0 0 C1.875 1.25 1.875 1.25 2.875 4.25 C0 3.9375 0 3.9375 -3.125 3.25 C-3.785 2.26 -4.445 1.27 -5.125 0.25 C-2.125 -0.75 -2.125 -0.75 0 0 Z " fill="#F9F9F9" transform="translate(67.125,60.75)"/>
<path d="M0 0 C2.475 0.99 2.475 0.99 5 2 C5 2.99 5 3.98 5 5 C4.01 5 3.02 5 2 5 C1.34 4.34 0.68 3.68 0 3 C0 2.01 0 1.02 0 0 Z " fill="#F0F0F0" transform="translate(60,53)"/>
<path d="M0 0 C2.64 0 5.28 0 8 0 C8 0.33 8 0.66 8 1 C6.35 1 4.7 1 3 1 C3 2.32 3 3.64 3 5 C2.01 5 1.02 5 0 5 C0 3.35 0 1.7 0 0 Z " fill="#292929" transform="translate(14,24)"/>
<path d="M0 0 C2.31 0.33 4.62 0.66 7 1 C7 2.32 7 3.64 7 5 C6.38125 4.649375 5.7625 4.29875 5.125 3.9375 C4.42375 3.628125 3.7225 3.31875 3 3 C2.01 3.495 2.01 3.495 1 4 C0.67 2.68 0.34 1.36 0 0 Z " fill="#DADADA" transform="translate(46,38)"/>
<path d="M0 0 C1.32 0 2.64 0 4 0 C3.67 1.32 3.34 2.64 3 4 C1.35 4 -0.3 4 -2 4 C-1.34 2.68 -0.68 1.36 0 0 Z " fill="#F7F7F7" transform="translate(36,38)"/>
<path d="M0 0 C1.62580966 0.11398665 3.25067157 0.24155659 4.875 0.375 C5.77992187 0.44460937 6.68484375 0.51421875 7.6171875 0.5859375 C10 1 10 1 12 3 C11.34 3.66 10.68 4.32 10 5 C9.34 4.34 8.68 3.68 8 3 C6.03309626 2.32707499 6.03309626 2.32707499 3.875 1.875 C2.59625 1.58625 1.3175 1.2975 0 1 C0 0.67 0 0.34 0 0 Z " fill="#595959" transform="translate(62,33)"/>
<path d="M0 0 C1.65 0 3.3 0 5 0 C4.67 1.32 4.34 2.64 4 4 C2.68 4 1.36 4 0 4 C0 2.68 0 1.36 0 0 Z " fill="#474747" transform="translate(17,25)"/>
<path d="M0 0 C0.99 0.33 1.98 0.66 3 1 C2.67 2.32 2.34 3.64 2 5 C0.68 4.67 -0.64 4.34 -2 4 C-1.34 2.68 -0.68 1.36 0 0 Z " fill="#838383" transform="translate(47,24)"/>
<path d="M0 0 C2.31 0 4.62 0 7 0 C6 2 6 2 2.9375 3.125 C1.968125 3.41375 0.99875 3.7025 0 4 C0 2.68 0 1.36 0 0 Z " fill="#8C8C8C" transform="translate(33,34)"/>
<path d="M0 0 C0.99 0 1.98 0 3 0 C2.67 1.65 2.34 3.3 2 5 C0.68 4.67 -0.64 4.34 -2 4 C-1.34 2.68 -0.68 1.36 0 0 Z " fill="#626262" transform="translate(24,16)"/>
<path d="M0 0 C0.66 0.66 1.32 1.32 2 2 C1.01 3.485 1.01 3.485 0 5 C-1.32 4.67 -2.64 4.34 -4 4 C-4 3.34 -4 2.68 -4 2 C-2.68 1.34 -1.36 0.68 0 0 Z " fill="#6B6B6B" transform="translate(69,86)"/>
<path d="M0 0 C2 3 2 3 1.625 5.1875 C1.41875 5.785625 1.2125 6.38375 1 7 C0.01 7 -0.98 7 -2 7 C-1.34 4.69 -0.68 2.38 0 0 Z " fill="#3C3C3C" transform="translate(78,82)"/>
<path d="M0 0 C1 3 1 3 -0.25 5.6875 C-0.8275 6.450625 -1.405 7.21375 -2 8 C-2.99 8 -3.98 8 -5 8 C-3.35 5.36 -1.7 2.72 0 0 Z " fill="#CDCDCD" transform="translate(49,65)"/>
<path d="M0 0 C0.66 0.33 1.32 0.66 2 1 C2 1.99 2 2.98 2 4 C-1.75 5.125 -1.75 5.125 -4 4 C-4 3.34 -4 2.68 -4 2 C-2.68 2 -1.36 2 0 2 C0 1.34 0 0.68 0 0 Z " fill="#3A3A3A" transform="translate(73,64)"/>
</svg>
